<svg width="172" height="30" viewBox="0 0 172 30" fill="none" xmlns="http://www.w3.org/2000/svg">
<g clip-path="url(#clip0)">
<path d="M16.7285 16.069C16.66 18.8608 14.9324 23.4035 11.2148 24.9676C8.56922 26.0779 5.56438 25.085 3.52884 23.2273C0.181895 20.174 -0.85583 15.0974 0.71216 10.9604C1.4933 8.48357 3.69989 5.70777 6.52798 5.07787C8.02755 4.65617 9.85212 4.91773 11.2091 5.60101C11.996 4.43197 13.0964 3.2736 14.3223 2.47289V2.44086C12.1043 1.49602 8.92843 1.62414 6.76745 2.70777C10.5648 0.140152 16.3122 -0.740631 20.982 0.689974C22.5671 1.18108 24.0952 1.82165 25.5035 2.74513C23.1202 1.62414 19.853 1.19175 17.2587 2.22734C11.8763 4.42129 9.96615 9.89816 9.92054 15.0014C10.0232 17.8893 10.8442 20.5156 12.3951 22.811C13.3986 22.0743 13.8605 21.012 14.3451 20.0298C15.075 18.3056 15.4 16.464 15.4342 14.4622C15.4912 11.174 17.1048 6.43375 21.1188 4.90706C24.1522 3.75403 27.2882 5.08321 29.3864 7.3519C31.9237 10.2131 32.9614 14.3128 31.8496 18.0174C31.1597 20.8305 28.9075 24.0814 25.7031 24.8555C24.1522 25.2665 22.3276 25.037 20.9592 24.3323C20.1552 25.5334 19.1004 26.6864 17.8631 27.5298V27.5565C20.1952 28.5441 23.3083 28.3732 25.5263 27.2149C21.4096 30.1028 14.9723 30.8768 10.0916 28.9604C8.88282 28.496 7.69685 27.9088 6.6078 27.1775C9.1622 28.5281 13.1592 28.8964 15.839 27.3644C20.2066 24.9142 21.9741 20.4409 22.2421 15.9996C22.4188 12.6953 21.4952 9.70599 19.7903 7.12236C18.7469 7.89638 18.2565 9.0067 17.7776 10.053C16.9965 11.8999 16.7798 13.891 16.7285 16.069Z" fill="white"/>
<path d="M125.684 26.5303V21.7634H125.034V21.5178H127.771C128.484 21.5178 129.037 21.6299 129.539 21.9876C130.189 22.452 130.594 23.2527 130.594 24.1548C130.594 25.057 130.183 25.8684 129.516 26.3381C129.066 26.6531 128.49 26.7918 127.737 26.7918H125.034V26.5303H125.684ZM127.714 26.5303C128.199 26.5303 128.501 26.4982 128.735 26.2207C129.014 25.879 129.066 25.3025 129.066 24.4591C129.066 24.331 129.066 24.2082 129.066 24.0854C129.066 23.226 129.049 22.6175 128.843 22.2385C128.615 21.8168 128.285 21.758 127.714 21.758H127.042V26.5249H127.714V26.5303Z" fill="white"/>
<path d="M134.653 25.7832C134.38 26.5305 133.866 26.8775 133.034 26.8775C131.882 26.8775 131.158 26.2209 131.158 25.2387C131.158 24.2725 131.934 23.5251 133.017 23.5251C134.003 23.5251 134.613 24.1017 134.613 25.0251C134.613 25.0412 134.613 25.0465 134.613 25.0679H132.458V25.8632C132.458 26.4291 132.589 26.6746 133.114 26.6746C133.77 26.6746 134.226 26.349 134.465 25.7191L134.653 25.7832ZM133.541 24.8276V24.2084C133.541 23.8668 133.376 23.7227 133 23.7227C132.641 23.7227 132.458 23.8775 132.458 24.2084V24.8276H133.541Z" fill="white"/>
<path d="M135.218 23.872H134.87V23.6265H136.843V23.872H136.432L137.231 25.6496L137.881 24.1816C137.903 24.1336 137.932 24.0855 137.932 24.0055C137.932 23.9254 137.858 23.8774 137.709 23.8774H137.356V23.6318H138.679V23.8774H138.456C138.325 23.8774 138.251 23.9254 138.171 24.1069L136.928 26.9147H136.706L135.218 23.872Z" fill="white"/>
<path d="M142.362 25.7832C142.089 26.5305 141.575 26.8775 140.743 26.8775C139.591 26.8775 138.867 26.2209 138.867 25.2387C138.867 24.2725 139.642 23.5251 140.726 23.5251C141.712 23.5251 142.322 24.1017 142.322 25.0251C142.322 25.0412 142.322 25.0465 142.322 25.0679H140.167V25.8632C140.167 26.4291 140.298 26.6746 140.823 26.6746C141.478 26.6746 141.935 26.349 142.174 25.7191L142.362 25.7832ZM141.25 24.8276V24.2084C141.25 23.8668 141.085 23.7227 140.709 23.7227C140.35 23.7227 140.167 23.8775 140.167 24.2084V24.8276H141.25Z" fill="white"/>
<path d="M143.149 26.5464V21.7635H142.613V21.518C143.206 21.5019 143.765 21.4699 144.284 21.4219V26.5464H144.803V26.792H142.67V26.5464H143.149Z" fill="white"/>
<path d="M147.112 23.5305C148.263 23.5305 149.033 24.2351 149.033 25.2013C149.033 26.1675 148.258 26.8775 147.112 26.8775C145.96 26.8775 145.196 26.1729 145.196 25.2067C145.196 24.2458 145.96 23.5305 147.112 23.5305ZM146.467 25.2013C146.467 25.2974 146.467 25.4149 146.467 25.527C146.467 26.349 146.507 26.6853 147.117 26.6853C147.728 26.6853 147.756 26.3223 147.756 25.3241C147.756 25.18 147.756 25.0252 147.756 24.8544C147.756 24.0697 147.705 23.728 147.117 23.728C146.49 23.7227 146.467 24.1284 146.467 25.2013Z" fill="white"/>
<path d="M149.478 28.3241H149.94V23.8722H149.404V23.6266C149.997 23.6106 150.556 23.5786 151.074 23.5305V24.1391C151.32 23.7334 151.667 23.5305 152.129 23.5305C152.99 23.5305 153.64 24.2351 153.64 25.2174C153.64 26.1675 152.985 26.8882 152.129 26.8882C151.667 26.8882 151.325 26.696 151.074 26.2903V28.3241H151.667V28.5697H149.478V28.3241ZM152.386 24.3793C152.386 23.9576 152.346 23.7654 151.975 23.7654C151.451 23.7654 151.069 24.1924 151.069 24.9077V25.5163C151.069 26.2316 151.439 26.6586 151.975 26.6586C152.329 26.6586 152.386 26.4558 152.386 26.0501V24.3793Z" fill="white"/>
<path d="M154.575 26.5464V23.8613H154.068V23.6158C154.57 23.6158 155.106 23.5891 155.682 23.5517V24.3524C155.984 23.7919 156.383 23.541 156.964 23.541C157.563 23.541 157.888 23.8079 157.9 24.3257C158.202 23.7812 158.601 23.541 159.188 23.541C159.559 23.541 159.821 23.6371 159.992 23.8399C160.118 23.9841 160.135 24.1816 160.135 24.4165C160.135 24.4912 160.135 24.5713 160.135 24.6513V26.541H160.636V26.7866H158.595V26.541H159.023V24.3097C159.023 24.0161 158.926 23.888 158.686 23.888C158.31 23.888 157.888 24.3898 157.888 25.0303V26.541H158.293V26.7866H156.383V26.541H156.799V24.3097C156.799 24.0161 156.702 23.888 156.463 23.888C156.086 23.888 155.682 24.4058 155.682 25.0303V26.541H156.086V26.7866H154.131V26.541H154.575V26.5464Z" fill="white"/>
<path d="M164.479 25.7832C164.206 26.5305 163.692 26.8775 162.86 26.8775C161.708 26.8775 160.984 26.2209 160.984 25.2387C160.984 24.2725 161.76 23.5251 162.843 23.5251C163.829 23.5251 164.439 24.1017 164.439 25.0251C164.439 25.0412 164.439 25.0465 164.439 25.0679H162.284V25.8632C162.284 26.4291 162.415 26.6746 162.94 26.6746C163.596 26.6746 164.052 26.349 164.291 25.7191L164.479 25.7832ZM163.373 24.8276V24.2084C163.373 23.8668 163.208 23.7227 162.832 23.7227C162.472 23.7227 162.29 23.8775 162.29 24.2084V24.8276H163.373Z" fill="white"/>
<path d="M165.443 26.5463V23.8559H164.901V23.605C165.437 23.605 165.985 23.589 166.572 23.5463V24.347C166.886 23.7865 167.279 23.5356 167.878 23.5356C168.733 23.5356 168.824 23.9253 168.824 24.6887V26.5463H169.303V26.7919H167.296V26.5463H167.718V24.3097C167.718 24.0161 167.621 23.8826 167.382 23.8826C167.005 23.8826 166.583 24.4111 166.583 25.0356V26.5517H166.994V26.7972H164.953V26.5517H165.443V26.5463Z" fill="white"/>
<path d="M170.044 23.8614H169.577V23.6159H170.044V22.6337C170.198 22.6497 170.358 22.655 170.523 22.655C170.729 22.655 170.934 22.639 171.15 22.6123V23.6105H171.806V23.8561H171.15V26.0607C171.15 26.3276 171.207 26.4184 171.413 26.4184C171.618 26.4184 171.761 26.2422 171.783 25.9539H172.006C171.972 26.5038 171.521 26.8614 170.865 26.8614C170.153 26.8614 170.05 26.6265 170.05 26.0607V23.8614H170.044Z" fill="white"/>
<path d="M129.556 15.3525V3.92902H128.176V3.34717H135.332C138.091 3.34717 139.648 4.56959 139.648 6.35784C139.648 7.88987 138.405 8.84539 135.982 9.19236V9.34717C138.764 9.58204 140.161 10.6497 140.161 12.4913C140.161 14.6105 138.268 15.9664 135.195 15.9664H128.176V15.3472H129.556V15.3525ZM133.975 9.03756C135.925 9.03756 136.261 8.53044 136.261 6.47528C136.261 4.18525 136.067 3.92902 133.855 3.92902H132.749V9.03756H133.975ZM134.465 15.3525C136.341 15.3525 136.615 14.808 136.615 12.4593C136.615 10.1692 136.164 9.58204 134.191 9.58204H132.755V15.3525H134.465Z" fill="white"/>
<path d="M143.183 16.1693C141.843 16.1693 141.114 15.47 141.114 14.2636C141.114 12.6888 142.887 11.5625 146.08 11.5625V9.71552C146.08 8.92015 145.846 8.66926 144.757 8.66926C144.084 8.66926 143.753 8.82406 143.753 9.11766C143.753 9.30983 144.107 9.58207 144.107 10.1266C144.107 10.8632 143.634 11.2742 142.784 11.2742C142.037 11.2742 141.621 10.8472 141.621 10.0892C141.621 8.88278 142.904 8.16748 145.27 8.16748C146.376 8.16748 147.203 8.34364 147.693 8.59453C148.463 8.98421 148.503 9.46997 148.503 10.3614V14.2849C148.503 14.7333 148.68 14.9468 149.113 14.9468C149.37 14.9468 149.467 14.7707 149.609 14.7707C149.729 14.7707 149.809 14.8668 149.809 14.9629C149.809 15.2938 149.119 16.1693 147.956 16.1693C147.106 16.1693 146.416 15.6835 146.142 14.8508C145.35 15.7796 144.46 16.1693 143.183 16.1693ZM145.84 12.091C144.301 12.091 143.691 12.4593 143.691 13.5696C143.691 14.6372 143.987 15.1016 144.774 15.1016C145.521 15.1016 146.074 14.5785 146.074 13.7244V12.091C146 12.091 145.92 12.091 145.84 12.091Z" fill="white"/>
<path d="M151.457 15.3898V8.94136H150.156V8.33815C151.439 8.33815 152.757 8.30079 154.159 8.2047V10.1264C154.906 8.78655 155.853 8.18335 157.295 8.18335C159.348 8.18335 159.564 9.11751 159.564 10.9431V15.3898H160.711V15.9716H155.898V15.3898H156.902V10.0303C156.902 9.33104 156.662 9.00008 156.092 9.00008C155.185 9.00008 154.182 10.2652 154.182 11.7599V15.3898H155.168V15.9716H150.276V15.3898H151.457Z" fill="white"/>
<path d="M162.301 15.3899V3.92903H161.338V3.34718C162.404 3.30981 163.607 3.22974 164.987 3.1123V15.3845H166.23V15.9664H161.338V15.3845H162.301V15.3899Z" fill="white"/>
<path d="M168.51 8.96271H166.657V8.38086H170.78V8.96271H169.32L167.29 10.6122L171.076 15.3898H171.88V15.9716H166.897V15.3898H167.878L165.078 11.7972L168.51 8.96271Z" fill="white"/>
<path d="M39.1028 23.872H38.584V23.6264H39.1028V23.4556C39.1028 22.2545 39.8612 21.4111 40.8134 21.4111C41.4064 21.4111 41.777 21.7047 41.777 22.1104C41.777 22.4414 41.5888 22.6282 41.2581 22.6282C40.973 22.6282 40.7621 22.4414 40.7621 22.1745C40.7621 21.9289 40.973 21.8435 40.973 21.7528C40.973 21.6941 40.8818 21.6407 40.7336 21.6407C40.4029 21.6407 40.209 21.9022 40.209 22.404C40.209 22.767 40.2318 23.0766 40.2318 23.3222V23.6318H40.9388V23.8773H40.2318V26.5517H40.8077V26.7973H38.6182V26.5517H39.0971V23.872H39.1028Z" fill="white"/>
<path d="M43.4247 23.5305C44.5765 23.5305 45.3462 24.2351 45.3462 25.2013C45.3462 26.1675 44.5708 26.8775 43.4247 26.8775C42.273 26.8775 41.5089 26.1729 41.5089 25.2067C41.5089 24.2458 42.273 23.5305 43.4247 23.5305ZM42.7804 25.2013C42.7804 25.2974 42.7804 25.4149 42.7804 25.527C42.7804 26.349 42.8203 26.6853 43.4304 26.6853C44.0405 26.6853 44.069 26.3223 44.069 25.3241C44.069 25.18 44.069 25.0252 44.069 24.8544C44.069 24.0697 44.0177 23.728 43.4304 23.728C42.8089 23.7227 42.7804 24.1284 42.7804 25.2013Z" fill="white"/>
<path d="M45.905 26.5465H46.3383V23.8722H45.8993V23.6266C46.4182 23.6106 46.937 23.5786 47.4559 23.5305V24.3953C47.6783 23.8455 48.0546 23.5465 48.4594 23.5465C48.8699 23.5465 49.1721 23.8294 49.1721 24.2031C49.1721 24.5341 48.9327 24.785 48.5905 24.785C48.3055 24.785 48.066 24.5501 48.066 24.2405C48.066 24.0857 48.1629 24.0216 48.1629 23.9415C48.1629 23.9202 48.1401 23.8935 48.0945 23.8935C47.9063 23.8935 47.4787 24.454 47.4787 25.1106V26.5465H48.0717V26.7921H45.9107V26.5465H45.905Z" fill="white"/>
<path d="M52.6616 26.5303V21.7634H52.0344V21.5178H55.0222C56.2708 21.5178 56.9323 21.9395 56.9323 22.6708C56.9323 23.4182 56.3051 23.8879 55.1533 23.9413V24.0054C56.3564 24.1655 56.7498 24.694 56.7498 25.8844C56.7498 26.3061 56.7897 26.5089 57.0976 26.5089C57.1945 26.5089 57.32 26.4876 57.4568 26.4342L57.5366 26.6531C57.1489 26.8239 56.8239 26.8986 56.6073 26.8986C56.1454 26.8986 55.7748 26.7545 55.5695 26.5249C55.216 26.1353 55.2388 25.6335 55.216 25.0516C55.1818 24.3363 54.9195 24.0801 54.1555 24.0801C54.1156 24.0801 54.0643 24.0801 54.0129 24.0801V26.5303H54.7143V26.7918H52.0344V26.5303H52.6616ZM54.6915 23.8239C55.3643 23.8239 55.4726 23.573 55.4726 22.8363C55.4726 21.9128 55.4498 21.7687 54.6915 21.7687H54.0186V23.8292H54.6915V23.8239Z" fill="white"/>
<path d="M61.2769 25.7832C61.0033 26.5305 60.4901 26.8775 59.6576 26.8775C58.5059 26.8775 57.7817 26.2209 57.7817 25.2387C57.7817 24.2725 58.5572 23.5251 59.6405 23.5251C60.6269 23.5251 61.237 24.1017 61.237 25.0251C61.237 25.0412 61.237 25.0465 61.237 25.0679H59.0818V25.8632C59.0818 26.4291 59.2129 26.6746 59.7375 26.6746C60.3932 26.6746 60.8493 26.349 61.0831 25.7191L61.2769 25.7832ZM60.1651 24.8276V24.2084C60.1651 23.8668 59.9997 23.7227 59.6234 23.7227C59.2642 23.7227 59.0818 23.8775 59.0818 24.2084V24.8276H60.1651Z" fill="white"/>
<path d="M65.1715 25.783C64.9149 26.5036 64.4245 26.8719 63.7061 26.8719C62.6513 26.8719 61.8872 26.1246 61.8872 25.1958C61.8872 24.2883 62.7026 23.5356 63.7802 23.5356C64.5443 23.5356 65.0289 23.9253 65.0289 24.4271C65.0289 24.726 64.8065 24.9449 64.5043 24.9449C64.1508 24.9449 63.9456 24.726 63.9456 24.4004C63.9456 24.0908 64.2021 23.9947 64.2021 23.904C64.2021 23.7759 64.0596 23.7171 63.7802 23.7171C63.1701 23.7171 63.1473 24.0267 63.1473 24.7047V25.6762C63.1473 26.3488 63.2157 26.6424 63.7973 26.6424C64.3675 26.6424 64.7666 26.3275 64.9833 25.7189L65.1715 25.783Z" fill="white"/>
<path d="M67.6687 23.5305C68.8205 23.5305 69.5959 24.2351 69.5959 25.2013C69.5959 26.1675 68.8205 26.8775 67.6687 26.8775C66.517 26.8775 65.7529 26.1729 65.7529 25.2067C65.7529 24.2458 66.517 23.5305 67.6687 23.5305ZM67.0244 25.2013C67.0244 25.2974 67.0244 25.4149 67.0244 25.527C67.0244 26.349 67.0643 26.6853 67.6744 26.6853C68.2845 26.6853 68.313 26.3223 68.313 25.3241C68.313 25.18 68.313 25.0252 68.313 24.8544C68.313 24.0697 68.2617 23.728 67.6744 23.728C67.0529 23.7227 67.0244 24.1284 67.0244 25.2013Z" fill="white"/>
<path d="M70.5596 26.5463V23.8559H70.0179V23.605C70.5539 23.605 71.1013 23.589 71.6886 23.5463V24.347C72.0022 23.7865 72.3956 23.5356 72.9943 23.5356C73.8495 23.5356 73.9407 23.9253 73.9407 24.6887V26.5463H74.4197V26.7919H72.4127V26.5463H72.8346V24.3097C72.8346 24.0161 72.7377 23.8826 72.4982 23.8826C72.1219 23.8826 71.7 24.4111 71.7 25.0356V26.5517H72.1105V26.7972H70.0693V26.5517H70.5596V26.5463Z" fill="white"/>
<path d="M74.9044 25.6123H75.121C75.3092 26.3116 75.714 26.6639 76.2956 26.6639C76.7803 26.6639 77.0767 26.397 77.0767 26.0874C77.0767 25.7138 76.7061 25.7458 76.039 25.6497C75.2636 25.5376 74.8987 25.3027 74.8987 24.6622C74.8987 23.9575 75.3605 23.5251 76.0561 23.5251C76.3412 23.5251 76.6149 23.5999 76.8373 23.712L77.0083 23.5679H77.1737L77.1965 24.47H76.9798C76.8145 23.9735 76.5009 23.7227 76.0561 23.7227C75.5943 23.7227 75.3092 23.9308 75.3092 24.1604C75.3092 24.454 75.657 24.4593 76.3469 24.5501C77.1794 24.6568 77.5158 24.9291 77.5158 25.6604C77.5158 26.4077 77.0539 26.8775 76.2671 26.8775C75.8794 26.8775 75.5658 26.7814 75.3377 26.6106L75.1096 26.7867H74.9101L74.9044 25.6123Z" fill="white"/>
<path d="M78.3996 23.8614H77.932V23.6159H78.3996V22.6337C78.5535 22.6497 78.7131 22.655 78.8785 22.655C79.0838 22.655 79.289 22.639 79.5057 22.6123V23.6105H80.1614V23.8561H79.5057V26.0607C79.5057 26.3276 79.5627 26.4184 79.768 26.4184C79.9732 26.4184 80.1158 26.2422 80.1386 25.9539H80.361C80.3268 26.5038 79.8763 26.8614 79.2206 26.8614C78.5079 26.8614 78.4053 26.6265 78.4053 26.0607V23.8614H78.3996Z" fill="white"/>
<path d="M80.7032 26.5465H81.1365V23.8722H80.6918V23.6266C81.2106 23.6106 81.7295 23.5786 82.2484 23.5305V24.3953C82.4707 23.8455 82.847 23.5465 83.2519 23.5465C83.6624 23.5465 83.9646 23.8294 83.9646 24.2031C83.9646 24.5341 83.7251 24.785 83.383 24.785C83.0922 24.785 82.8585 24.5501 82.8585 24.2405C82.8585 24.0857 82.9554 24.0216 82.9554 23.9415C82.9554 23.9202 82.9326 23.8935 82.887 23.8935C82.6988 23.8935 82.2712 24.454 82.2712 25.1106V26.5465H82.8642V26.7921H80.7032V26.5465Z" fill="white"/>
<path d="M88.1154 26.5412H88.6399V26.7867C88.0869 26.7867 87.5452 26.8134 86.9864 26.8508V26.0501C86.6671 26.6159 86.2737 26.8775 85.6807 26.8775C85.3101 26.8775 85.0307 26.7707 84.8654 26.5679C84.7513 26.4131 84.7342 26.2209 84.7342 25.9487C84.7342 25.8526 84.7342 25.7298 84.7342 25.607V23.8561H84.1982V23.6106C84.7969 23.6052 85.35 23.5786 85.8404 23.5305V26.0875C85.8404 26.381 85.9373 26.5145 86.1768 26.5145C86.5645 26.5145 86.975 25.9807 86.975 25.3561V23.8561H86.3934V23.6106C86.9636 23.6106 87.5281 23.5786 88.1097 23.5305V26.5412H88.1154Z" fill="white"/>
<path d="M92.3347 25.783C92.0781 26.5036 91.5877 26.8719 90.8693 26.8719C89.8145 26.8719 89.0504 26.1246 89.0504 25.1958C89.0504 24.2883 89.8658 23.5356 90.9434 23.5356C91.7075 23.5356 92.1921 23.9253 92.1921 24.4271C92.1921 24.726 91.9698 24.9449 91.6676 24.9449C91.314 24.9449 91.1088 24.726 91.1088 24.4004C91.1088 24.0908 91.3654 23.9947 91.3654 23.904C91.3654 23.7759 91.2228 23.7171 90.9434 23.7171C90.3333 23.7171 90.3105 24.0267 90.3105 24.7047V25.6762C90.3105 26.3488 90.3789 26.6424 90.9605 26.6424C91.5307 26.6424 91.9298 26.3275 92.1465 25.7189L92.3347 25.783Z" fill="white"/>
<path d="M93.2926 23.8614H92.8251V23.6159H93.2926V22.6337C93.4466 22.6497 93.6062 22.655 93.7716 22.655C93.9768 22.655 94.1821 22.639 94.3988 22.6123V23.6105H95.0545V23.8561H94.3988V26.0607C94.3988 26.3276 94.4558 26.4184 94.661 26.4184C94.8663 26.4184 95.0088 26.2422 95.0317 25.9539H95.254C95.2198 26.5038 94.7694 26.8614 94.1137 26.8614C93.4009 26.8614 93.2983 26.6265 93.2983 26.0607V23.8614H93.2926Z" fill="white"/>
<path d="M95.5447 26.5465H96.0294V23.8722H95.4934V23.6266C96.0864 23.6106 96.6452 23.5786 97.164 23.5305V26.5465H97.6715V26.7921H95.539V26.5465H95.5447Z" fill="white"/>
<path d="M96.5826 21.6887C96.8962 21.6887 97.1528 21.9396 97.1528 22.2546C97.1528 22.5642 96.8962 22.8204 96.5769 22.8204C96.2576 22.8204 96.0067 22.5588 96.0067 22.2546C96.0067 21.9396 96.269 21.6887 96.5826 21.6887Z" fill="white"/>
<path d="M99.9409 23.5305C101.093 23.5305 101.862 24.2351 101.862 25.2013C101.862 26.1675 101.087 26.8775 99.9409 26.8775C98.7892 26.8775 98.0251 26.1729 98.0251 25.2067C98.0251 24.2458 98.7892 23.5305 99.9409 23.5305ZM99.2966 25.2013C99.2966 25.2974 99.2966 25.4149 99.2966 25.527C99.2966 26.349 99.3365 26.6853 99.9466 26.6853C100.557 26.6853 100.585 26.3223 100.585 25.3241C100.585 25.18 100.585 25.0252 100.585 24.8544C100.585 24.0697 100.534 23.728 99.9466 23.728C99.3251 23.7227 99.2966 24.1284 99.2966 25.2013Z" fill="white"/>
<path d="M102.752 26.5463V23.8559H102.21V23.605C102.746 23.605 103.294 23.589 103.881 23.5463V24.347C104.195 23.7865 104.588 23.5356 105.187 23.5356C106.042 23.5356 106.133 23.9253 106.133 24.6887V26.5463H106.612V26.7919H104.605V26.5463H105.027V24.3097C105.027 24.0161 104.93 23.8826 104.691 23.8826C104.314 23.8826 103.892 24.4111 103.892 25.0356V26.5517H104.303V26.7972H102.262V26.5517H102.752V26.5463Z" fill="white"/>
<path d="M110.347 26.8719C109.788 26.8719 109.486 26.5783 109.486 26.0766C109.486 25.42 110.227 24.9502 111.555 24.9502V24.1816C111.555 23.8506 111.459 23.7438 111.002 23.7438C110.723 23.7438 110.58 23.8079 110.58 23.9307C110.58 24.0107 110.729 24.1228 110.729 24.3524C110.729 24.662 110.529 24.8328 110.176 24.8328C109.862 24.8328 109.691 24.6566 109.691 24.3364C109.691 23.8346 110.227 23.5356 111.213 23.5356C111.675 23.5356 112.017 23.6104 112.223 23.7118C112.542 23.8719 112.559 24.0748 112.559 24.4485V26.0872C112.559 26.2741 112.633 26.3648 112.816 26.3648C112.924 26.3648 112.964 26.2901 113.021 26.2901C113.072 26.2901 113.101 26.3328 113.101 26.3702C113.101 26.509 112.816 26.8719 112.325 26.8719C111.972 26.8719 111.687 26.6691 111.567 26.3221C111.248 26.7065 110.883 26.8719 110.347 26.8719ZM111.453 25.1691C110.814 25.1691 110.558 25.3239 110.558 25.783C110.558 26.2314 110.683 26.4235 111.008 26.4235C111.322 26.4235 111.55 26.2047 111.55 25.847V25.1638C111.521 25.1691 111.487 25.1691 111.453 25.1691Z" fill="white"/>
<path d="M113.802 26.5463V23.8559H113.26V23.605C113.796 23.605 114.344 23.589 114.931 23.5463V24.347C115.244 23.7865 115.638 23.5356 116.237 23.5356C117.092 23.5356 117.183 23.9253 117.183 24.6887V26.5463H117.662V26.7919H115.655V26.5463H116.077V24.3097C116.077 24.0161 115.98 23.8826 115.741 23.8826C115.364 23.8826 114.942 24.4111 114.942 25.0356V26.5517H115.353V26.7972H113.312V26.5517H113.802V26.5463Z" fill="white"/>
<path d="M120.598 26.2848C120.353 26.6905 120 26.8827 119.538 26.8827C118.683 26.8827 118.027 26.1621 118.027 25.2119C118.027 24.2297 118.677 23.525 119.538 23.525C120 23.525 120.353 23.7279 120.598 24.1336V21.7581H119.966V21.5126C120.65 21.4966 121.231 21.4645 121.71 21.4165V26.5411H122.155V26.7866H120.598V26.2848ZM120.598 24.9076C120.598 24.1923 120.222 23.7653 119.686 23.7653C119.338 23.7653 119.281 23.9414 119.281 24.3578V26.0446C119.281 26.4663 119.35 26.6585 119.686 26.6585C120.222 26.6585 120.598 26.2315 120.598 25.5162V24.9076Z" fill="white"/>
<path d="M38.584 15.3525H40.1406V3.92902H38.8007V3.34717H49.4858L49.5257 6.66745H48.8757C48.009 4.51087 47.2963 3.92902 45.5858 3.92902H43.3906V9.11229C43.5274 9.13364 43.6871 9.13364 43.8239 9.13364C45.2038 9.13364 45.8937 8.45571 46.1103 6.82226H46.7603V12.203H46.1103C45.9735 10.4575 45.2836 9.73685 43.7441 9.73685C43.6244 9.73685 43.5046 9.7582 43.3906 9.7582V15.3525H45.5174C47.6669 15.3525 48.7332 14.3062 49.4003 11.76H50.0104L49.8735 15.9771H38.584V15.3525Z" fill="white"/>
<path d="M60.4104 15.3739H61.6705V15.9557C60.3477 15.9557 59.0477 16.0145 57.7078 16.1105V14.1888C56.938 15.55 55.9915 16.1693 54.5718 16.1693C53.6823 16.1693 53.0152 15.9184 52.6218 15.4326C52.3481 15.0643 52.3082 14.5999 52.3082 13.954C52.3082 13.7191 52.3082 13.4308 52.3082 13.1372V8.9415H51.0253V8.35965C52.4621 8.3383 53.7849 8.27958 54.9709 8.16748V14.2849C54.9709 14.9842 55.2104 15.3152 55.7806 15.3152C56.7042 15.3152 57.6906 14.034 57.6906 12.5394V8.94684H56.2937V8.36499C57.6564 8.36499 59.0135 8.28492 60.4161 8.17282V15.3739H60.4104Z" fill="white"/>
<path d="M62.4403 15.3899H63.4837V8.98421H62.4175V8.40236C63.6605 8.36499 64.9035 8.28492 66.1464 8.16748V10.244C66.6767 8.92549 67.5833 8.20485 68.5526 8.20485C69.539 8.20485 70.2688 8.88278 70.2688 9.77958C70.2688 10.575 69.6986 11.1782 68.8719 11.1782C68.182 11.1782 67.6118 10.6123 67.6118 9.87567C67.6118 9.50734 67.8513 9.35253 67.8513 9.15502C67.8513 9.09631 67.7943 9.03759 67.6916 9.03759C67.2355 9.03759 66.2149 10.3774 66.2149 11.9522V15.3899H67.6346V15.9718H62.4517V15.3899H62.4403Z" fill="white"/>
<path d="M75.5886 8.16748C78.3482 8.16748 80.2013 9.85965 80.2013 12.171C80.2013 14.4824 78.3482 16.1906 75.5886 16.1906C72.8289 16.1906 70.9929 14.4984 70.9929 12.1871C70.9929 9.87567 72.8289 8.16748 75.5886 8.16748ZM74.0548 12.1657C74.0548 12.4006 74.0548 12.6728 74.0548 12.9451C74.0548 14.9095 74.1517 15.7209 75.6114 15.7209C77.071 15.7209 77.1508 14.8454 77.1508 12.4593C77.1508 12.1123 77.1508 11.7387 77.1508 11.333C77.1508 9.44862 77.0311 8.63189 75.6114 8.63189C74.1118 8.63189 74.0548 9.60342 74.0548 12.1657Z" fill="white"/>
<path d="M80.9653 19.6443H82.0715V8.98421H80.7886V8.40236C82.2083 8.36499 83.5482 8.28492 84.7912 8.16748V9.62478C85.3842 8.65325 86.211 8.16748 87.3171 8.16748C89.3869 8.16748 90.9434 9.85965 90.9434 12.2084C90.9434 14.4824 89.364 16.2066 87.3171 16.2066C86.211 16.2066 85.3842 15.7422 84.7912 14.7707V19.6443H86.211V20.2262H80.9653V19.6443ZM87.9443 10.2066C87.9443 9.19773 87.8474 8.72798 86.9579 8.72798C85.6978 8.72798 84.7912 9.75823 84.7912 11.4664V12.9237C84.7912 14.6319 85.6807 15.6621 86.9579 15.6621C87.8075 15.6621 87.9443 15.1764 87.9443 14.2048V10.2066Z" fill="white"/>
<path d="M100.705 13.5642C100.055 15.3525 98.8119 16.1852 96.822 16.1852C94.0623 16.1852 92.329 14.6105 92.329 12.2618C92.329 9.95037 94.1821 8.16211 96.7821 8.16211C99.1483 8.16211 100.608 9.53933 100.608 11.7546C100.608 11.792 100.608 11.8134 100.608 11.8507H95.4422V13.7564C95.4422 15.1176 95.7558 15.6995 97.0216 15.6995C98.601 15.6995 99.6843 14.9201 100.254 13.4094L100.705 13.5642ZM98.0422 11.2742V9.79556C98.0422 8.97884 97.6488 8.63186 96.7422 8.63186C95.8755 8.63186 95.4422 9.00019 95.4422 9.79556V11.2742H98.0422Z" fill="white"/>
<path d="M103.932 16.1693C102.592 16.1693 101.862 15.47 101.862 14.2636C101.862 12.6888 103.636 11.5625 106.829 11.5625V9.71552C106.829 8.92015 106.595 8.66926 105.506 8.66926C104.833 8.66926 104.502 8.82406 104.502 9.11766C104.502 9.30983 104.856 9.58207 104.856 10.1266C104.856 10.8632 104.383 11.2742 103.533 11.2742C102.786 11.2742 102.37 10.8472 102.37 10.0892C102.37 8.88278 103.653 8.16748 106.019 8.16748C107.125 8.16748 107.952 8.34364 108.442 8.59453C109.212 8.98421 109.252 9.46997 109.252 10.3614V14.2849C109.252 14.7333 109.429 14.9468 109.862 14.9468C110.119 14.9468 110.216 14.7707 110.352 14.7707C110.472 14.7707 110.552 14.8668 110.552 14.9629C110.552 15.2938 109.862 16.1693 108.699 16.1693C107.849 16.1693 107.159 15.6835 106.886 14.8508C106.099 15.7796 105.215 16.1693 103.932 16.1693ZM106.595 12.091C105.055 12.091 104.445 12.4593 104.445 13.5696C104.445 14.6372 104.742 15.1016 105.529 15.1016C106.276 15.1016 106.829 14.5785 106.829 13.7244V12.091C106.749 12.091 106.675 12.091 106.595 12.091Z" fill="white"/>
<path d="M112.108 15.3898V8.94136H110.808V8.33815C112.091 8.33815 113.408 8.30079 114.811 8.2047V10.1264C115.558 8.78655 116.505 8.18335 117.947 8.18335C120 8.18335 120.216 9.11751 120.216 10.9431V15.3898H121.362V15.9716H116.55V15.3898H117.554V10.0303C117.554 9.33104 117.32 9.00008 116.744 9.00008C115.837 9.00008 114.834 10.2652 114.834 11.7599V15.3898H115.82V15.9716H110.928V15.3898H112.108Z" fill="white"/>
</g>
<defs>
<clipPath id="clip0">
<rect width="172" height="30" fill="white"/>
</clipPath>
</defs>
</svg>
