<svg width="40" height="48" viewBox="0 0 40 48" fill="none" xmlns="http://www.w3.org/2000/svg">
<path d="M26.9451 0H7.66634C4.84989 0 2.5576 2.29388 2.5576 5.10873V24H2.05863C0.921892 24 0 24.9209 0 26.0587V38.5434C0 39.6811 0.921792 40.602 2.05863 40.602H2.5576V42.8913C2.5576 45.7092 4.84989 48 7.66634 48H33.9714C36.7861 48 39.0787 45.7091 39.0787 42.8913V12.091L26.9451 0ZM33.9714 44.8713H7.66634C6.5758 44.8713 5.68775 43.9833 5.68775 42.8913V40.602H30.2095C31.3464 40.602 32.2682 39.6811 32.2682 38.5434V26.0587C32.2682 24.9209 31.3464 24 30.2095 24H5.68775V5.10873C5.68775 4.01979 6.5759 3.13174 7.66634 3.13174L25.7746 3.11283V9.8063C25.7746 11.7614 27.361 13.3492 29.3176 13.3492L35.8745 13.3304L35.9483 42.8912C35.9483 43.9833 35.0619 44.8713 33.9714 44.8713Z" fill="#1FBBEC"/>
<path d="M8.44677 28.2C9.63211 28.2 10.5281 28.4893 11.1348 29.068C11.7508 29.6467 12.0588 30.4027 12.0588 31.336C12.0588 32.3347 11.7554 33.1373 11.1488 33.744C10.5421 34.3413 9.64144 34.64 8.44677 34.64H7.11677V38H4.94677V28.2H8.44677ZM8.26477 32.68C8.72211 32.68 9.08144 32.568 9.34277 32.344C9.61344 32.12 9.74877 31.798 9.74877 31.378C9.74877 30.5753 9.25411 30.174 8.26477 30.174H7.11677V32.68H8.26477ZM16.1215 28.2C17.6895 28.2 18.9635 28.6433 19.9435 29.53C20.9235 30.4073 21.4135 31.5973 21.4135 33.1C21.4135 34.6027 20.9235 35.7973 19.9435 36.684C18.9635 37.5613 17.6895 38 16.1215 38H12.9995V28.2H16.1215ZM16.3035 30.174H15.1695V36.026H16.3035C17.1155 36.026 17.7782 35.7693 18.2915 35.256C18.8142 34.7333 19.0755 34.0147 19.0755 33.1C19.0755 32.1853 18.8142 31.4713 18.2915 30.958C17.7782 30.4353 17.1155 30.174 16.3035 30.174ZM28.8141 30.23H24.7261V32.232H28.2681V34.206H24.7261V38H22.5561V28.2H28.8141V30.23Z" fill="white"/>
</svg>
