<svg fill="none" height="553" viewBox="0 0 294 553" width="294" xmlns="http://www.w3.org/2000/svg"><g opacity=".2"><circle cx="89.8247" cy="173" fill="#fff" r="48"/><path clip-rule="evenodd" d="m131.225 197.306c-8.417 7.286-19.394 11.694-31.4003 11.694-26.5097 0-48-21.49-48-48 0-8.869 2.4056-17.177 6.6-24.306-10.1676 8.802-16.6 21.803-16.6 36.306 0 26.51 21.4903 48 48 48 17.6403 0 33.0583-9.516 41.4003-23.694z" fill="#c4c8c9" fill-rule="evenodd"/><g fill="#fff"><path d="m71.8247 137-6.5-19.5h4l7.5 16z"/><ellipse cx="68.3247" cy="116.5" rx="7.5" ry="3.5"/><ellipse cx="113.344" cy="122.858" rx="5.76695" ry="2.69125" transform="matrix(.82756489 .56137007 -.56137007 .82756489 88.513289 -42.442896)"/><ellipse cx="141.108" cy="152.465" rx="5.76695" ry="2.69125" transform="matrix(.30437057 .9525537 -.9525537 .30437057 243.389978 -28.353807)"/><ellipse cx="140.268" cy="191.174" rx="5.76695" ry="2.69125" transform="matrix(-.51298703 .85839636 -.85839636 -.51298703 376.32673 168.838242)"/><ellipse cx="110.585" cy="223.169" rx="5.76696" ry="2.69125" transform="matrix(-.94477173 .32772912 -.32772912 -.94477173 288.201561 397.770838)"/><path d="m112.325 122-5.5 8.5 1.5 2 6.5-8z"/></g><circle cx="84.8247" cy="146" fill="#c4c8c9" r="9"/><circle cx="96.3247" cy="166.5" fill="#c4c8c9" r="6.5"/><circle cx="67.3247" cy="160.5" fill="#c4c8c9" r="6.5"/><circle cx="70.3247" cy="182.5" fill="#c4c8c9" r="3.5"/><circle cx="96.3247" cy="202.5" fill="#c4c8c9" r="3.5"/><path d="m140.325 150.5-8.5 3v2.5l9.5-1.5z" fill="#fff"/><path d="m141.223 189.287-7.873-4.39-1.874 1.654 7.409 6.132z" fill="#fff"/><path d="m112.529 222.337-3.208-8.424-2.5.062 1.734 9.46z" fill="#fff"/><path d="m50.8993 206.917 4.4254-4.917 3 1.5-5.5 5.5z" fill="#c4c8c9"/><path d="m38.6254 171.102 6.5955.511.6395 3.293-7.7126-1.008z" fill="#c4c8c9"/><ellipse cx="49.8247" cy="209" fill="#c4c8c9" rx="3" ry="5" transform="matrix(.81293004 -.58236136 .58236136 .81293004 -112.392819 68.113602)"/><ellipse cx="36.3191" cy="171.52" fill="#c4c8c9" rx="3" ry="5" transform="matrix(.95718167 .2894879 -.2894879 .95718167 51.208088 -3.169741)"/></g><g opacity=".2"><circle cx="269.724" cy="362.654" fill="#fff" r="20.5234"/><path clip-rule="evenodd" d="m287.425 373.047c-3.599 3.115-8.292 5-13.425 5-11.335 0-20.523-9.189-20.523-20.524 0-3.792 1.028-7.344 2.822-10.392-4.348 3.763-7.098 9.322-7.098 15.523 0 11.335 9.188 20.524 20.523 20.524 7.542 0 14.134-4.069 17.701-10.131z" fill="#c4c8c9" fill-rule="evenodd"/><g fill="#fff"><path d="m262.028 347.262-2.779-8.338h1.71l3.207 6.841z"/><ellipse cx="260.531" cy="338.496" rx="3.20677" ry="1.49649"/><ellipse cx="279.78" cy="341.215" rx="2.46578" ry="1.1507" transform="matrix(.82756489 .56137007 -.56137007 .82756489 239.791782 -98.222671)"/><ellipse cx="291.651" cy="353.874" rx="2.46578" ry="1.1507" transform="matrix(.30437057 .9525537 -.9525537 .30437057 539.965007 -31.648071)"/><ellipse cx="291.292" cy="370.425" rx="2.46578" ry="1.1507" transform="matrix(-.51298703 .85839636 -.85839636 -.51298703 758.692489 310.404229)"/><ellipse cx="278.6" cy="384.105" rx="2.46578" ry="1.1507" transform="matrix(-.94477173 .32772912 -.32772912 -.94477173 667.695797 655.691214)"/><path d="m279.344 340.848-2.351 3.634.641.856 2.779-3.421z"/></g><circle cx="267.586" cy="351.11" fill="#c4c8c9" r="3.84813"/><circle cx="272.503" cy="359.875" fill="#c4c8c9" r="2.7792"/><circle cx="260.104" cy="357.31" fill="#c4c8c9" r="2.7792"/><circle cx="261.386" cy="366.716" fill="#c4c8c9" r="1.49649"/><circle cx="272.503" cy="375.267" fill="#c4c8c9" r="1.49649"/><path d="m291.316 353.034-3.634 1.283v1.068l4.062-.641z" fill="#fff"/><path d="m291.7 369.618-3.366-1.877-.802.707 3.168 2.622z" fill="#fff"/><path d="m279.431 383.749-1.372-3.601-1.068.026.741 4.045z" fill="#fff"/><path d="m253.081 377.156 1.892-2.102 1.283.641-2.352 2.352z" fill="#c4c8c9"/><path d="m247.832 361.843 2.82.218.274 1.408-3.298-.431z" fill="#c4c8c9"/><ellipse cx="252.621" cy="378.047" fill="#c4c8c9" rx="1.28271" ry="2.13785" transform="matrix(.81293004 -.58236136 .58236136 .81293004 -172.902164 217.837946)"/><ellipse cx="246.847" cy="362.021" fill="#c4c8c9" rx="1.28271" ry="2.13785" transform="matrix(.95718167 .2894879 -.2894879 .95718167 115.370276 -55.958087)"/></g><g opacity=".2"><circle cx="41.678" cy="513.246" fill="#fff" r="34.597"/><path clip-rule="evenodd" d="m71.518 530.765c-6.0667 5.252-13.9785 8.429-22.6322 8.429-19.1074 0-34.597-15.49-34.597-34.597 0-6.393 1.7338-12.381 4.757-17.519-7.3285 6.344-11.96475 15.715-11.96475 26.168 0 19.108 15.48965 34.597 34.59695 34.597 12.7146 0 23.8273-6.858 29.84-17.078z" fill="#c4c8c9" fill-rule="evenodd"/><g fill="#fff"><path d="m28.7045 487.298-4.685-14.055h2.8831l5.4058 11.533z"/><ellipse cx="26.1817" cy="472.523" rx="5.40578" ry="2.5227"/><ellipse cx="58.6303" cy="477.105" rx="4.15665" ry="1.93977" transform="matrix(.82756489 .56137007 -.56137007 .82756489 277.942388 49.356357)"/><ellipse cx="78.642" cy="498.445" rx="4.15665" ry="1.93977" transform="matrix(.30437057 .9525537 -.9525537 .30437057 529.50132 271.822282)"/><ellipse cx="78.0366" cy="526.345" rx="4.15665" ry="1.93977" transform="matrix(-.51298703 .85839636 -.85839636 -.51298703 569.880994 729.366826)"/><ellipse cx="56.6418" cy="549.406" rx="4.15665" ry="1.93977" transform="matrix(-.94477173 .32772912 -.32772912 -.94477173 290.211715 1049.906091)"/><path d="m57.8954 476.487-3.9642 6.126 1.0811 1.442 4.685-5.766z"/></g><circle cx="38.0743" cy="493.785" fill="#c4c8c9" r="6.48694"/><circle cx="46.3632" cy="508.561" fill="#c4c8c9" r="4.68501"/><circle cx="25.4609" cy="504.237" fill="#c4c8c9" r="4.68501"/><circle cx="27.6233" cy="520.094" fill="#c4c8c9" r="2.5227"/><circle cx="46.363" cy="534.509" fill="#c4c8c9" r="2.5227"/><path d="m78.0772 497.029-6.1265 2.162v1.802l6.8473-1.081z" fill="#fff"/><path d="m78.7248 524.985-5.6745-3.164-1.3513 1.192 5.3405 4.42z" fill="#fff"/><path d="m58.0429 548.807-2.3125-6.072-1.8013.045 1.2493 6.818z" fill="#fff"/><path d="m13.6221 537.693 3.1897-3.544 2.1623 1.081-3.9642 3.964z" fill="#c4c8c9"/><path d="m4.77538 511.878 4.75387.369.46091 2.373-5.55902-.727z" fill="#c4c8c9"/><ellipse cx="12.8473" cy="539.194" fill="#c4c8c9" rx="2.16231" ry="3.60385" transform="matrix(.81293004 -.58236136 .58236136 .81293004 -311.602407 108.348772)"/><ellipse cx="3.11288" cy="512.179" fill="#c4c8c9" rx="2.16231" ry="3.60385" transform="matrix(.95718167 .2894879 -.2894879 .95718167 148.402913 21.029507)"/></g><g opacity=".2"><circle cx="171.678" cy="303.246" fill="#fff" r="34.597"/><path clip-rule="evenodd" d="m201.518 320.765c-6.067 5.252-13.978 8.429-22.632 8.429-19.108 0-34.597-15.49-34.597-34.597 0-6.393 1.734-12.381 4.757-17.519-7.329 6.344-11.965 15.715-11.965 26.168 0 19.108 15.49 34.597 34.597 34.597 12.715 0 23.827-6.858 29.84-17.078z" fill="#c4c8c9" fill-rule="evenodd"/><g fill="#fff"><path d="m158.705 277.298-4.685-14.055h2.883l5.405 11.533z"/><ellipse cx="156.182" cy="262.523" rx="5.40578" ry="2.5227"/><ellipse cx="188.63" cy="267.105" rx="4.15665" ry="1.93977" transform="matrix(.82756489 .56137007 -.56137007 .82756489 182.471186 -59.832956)"/><ellipse cx="208.642" cy="288.445" rx="4.15665" ry="1.93977" transform="matrix(.30437057 .9525537 -.9525537 .30437057 419.896868 1.908121)"/><ellipse cx="208.037" cy="316.345" rx="4.15665" ry="1.93977" transform="matrix(-.51298703 .85839636 -.85839636 -.51298703 586.306679 300.047679)"/><ellipse cx="186.642" cy="339.406" rx="4.15665" ry="1.93977" transform="matrix(-.94477173 .32772912 -.32772912 -.94477173 474.209314 598.899176)"/><path d="m187.895 266.487-3.964 6.126 1.081 1.442 4.685-5.766z"/></g><circle cx="168.074" cy="283.785" fill="#c4c8c9" r="6.48694"/><circle cx="176.363" cy="298.561" fill="#c4c8c9" r="4.68501"/><circle cx="155.461" cy="294.237" fill="#c4c8c9" r="4.68501"/><circle cx="157.623" cy="310.094" fill="#c4c8c9" r="2.5227"/><circle cx="176.363" cy="324.509" fill="#c4c8c9" r="2.5227"/><path d="m208.077 287.029-6.126 2.162v1.802l6.847-1.081z" fill="#fff"/><path d="m208.725 314.985-5.675-3.164-1.351 1.192 5.341 4.42z" fill="#fff"/><path d="m188.043 338.807-2.313-6.072-1.801.045 1.249 6.818z" fill="#fff"/><path d="m143.622 327.693 3.19-3.544 2.162 1.081-3.964 3.964z" fill="#c4c8c9"/><path d="m134.775 301.878 4.754.369.461 2.373-5.559-.727z" fill="#c4c8c9"/><ellipse cx="142.847" cy="329.194" fill="#c4c8c9" rx="2.16231" ry="3.60385" transform="matrix(.81293004 -.58236136 .58236136 .81293004 -164.987482 144.770882)"/><ellipse cx="133.113" cy="302.179" fill="#c4c8c9" rx="2.16231" ry="3.60385" transform="matrix(.95718167 .2894879 -.2894879 .95718167 93.176841 -25.595804)"/></g><g opacity=".2"><circle cx="206.678" cy="43.2463" fill="#fff" r="34.597"/><path clip-rule="evenodd" d="m236.518 60.7652c-6.067 5.2516-13.978 8.4288-22.632 8.4288-19.108 0-34.597-15.4896-34.597-34.597 0-6.3928 1.734-12.3806 4.757-17.5189-7.329 6.3438-11.965 15.7146-11.965 26.1682 0 19.1074 15.49 34.597 34.597 34.597 12.715 0 23.827-6.8587 29.84-17.0781z" fill="#c4c8c9" fill-rule="evenodd"/><g fill="#fff"><path d="m193.705 17.2984-4.685-14.05499h2.883l5.405 11.53229z"/><ellipse cx="191.182" cy="2.5227" rx="5.40578" ry="2.5227"/><ellipse cx="223.63" cy="7.10521" rx="4.15665" ry="1.93977" transform="matrix(.82756489 .56137007 -.56137007 .82756489 42.550316 -124.314)"/><ellipse cx="243.642" cy="28.4449" rx="4.15665" ry="1.93977" transform="matrix(.30437057 .9525537 -.9525537 .30437057 196.57984 -212.29498)"/><ellipse cx="243.037" cy="56.3455" rx="4.15665" ry="1.93977" transform="matrix(-.51298703 .85839636 -.85839636 -.51298703 416.078601 -123.372065)"/><ellipse cx="221.642" cy="79.4063" rx="4.15665" ry="1.93977" transform="matrix(-.94477173 .32772912 -.32772912 -.94477173 457.066853 81.78859)"/><path d="m222.895 6.48694-3.964 6.12656 1.081 1.4415 4.685-5.76613z"/></g><circle cx="203.074" cy="23.7854" fill="#c4c8c9" r="6.48694"/><circle cx="211.363" cy="38.5612" fill="#c4c8c9" r="4.68501"/><circle cx="190.461" cy="34.2366" fill="#c4c8c9" r="4.68501"/><circle cx="192.623" cy="50.0935" fill="#c4c8c9" r="2.5227"/><circle cx="211.363" cy="64.509" fill="#c4c8c9" r="2.5227"/><path d="m243.077 27.0289-6.126 2.1623v1.802l6.847-1.0812z" fill="#fff"/><path d="m243.725 54.9853-5.675-3.164-1.351 1.192 5.341 4.4197z" fill="#fff"/><path d="m223.043 78.8068-2.313-6.0714-1.801.0443 1.249 6.8186z" fill="#fff"/><path d="m178.622 67.6927 3.19-3.5441 2.162 1.0811-3.964 3.9643z" fill="#c4c8c9"/><path d="m169.775 41.8782 4.754.3684.461 2.3732-5.559-.7264z" fill="#c4c8c9"/><ellipse cx="177.847" cy="69.194" fill="#c4c8c9" rx="2.16231" ry="3.60385" transform="matrix(.81293004 -.58236136 .58236136 .81293004 -7.02608 116.515339)"/><ellipse cx="168.113" cy="42.1793" fill="#c4c8c9" rx="2.16231" ry="3.60385" transform="matrix(.95718167 .2894879 -.2894879 .95718167 19.408715 -46.860633)"/></g><g opacity=".2"><circle cx="207.678" cy="190.246" fill="#fff" r="34.597"/><path clip-rule="evenodd" d="m237.518 207.765c-6.067 5.252-13.978 8.429-22.632 8.429-19.108 0-34.597-15.49-34.597-34.597 0-6.393 1.734-12.381 4.757-17.519-7.329 6.344-11.965 15.715-11.965 26.168 0 19.108 15.49 34.597 34.597 34.597 12.715 0 23.827-6.858 29.84-17.078z" fill="#c4c8c9" fill-rule="evenodd"/><g fill="#fff"><path d="m194.705 164.298-4.685-14.055h2.883l5.405 11.533z"/><ellipse cx="192.182" cy="149.523" rx="5.40578" ry="2.5227"/><ellipse cx="224.63" cy="154.105" rx="4.15665" ry="1.93977" transform="matrix(.82756489 .56137007 -.56137007 .82756489 125.244033 -99.527445)"/><ellipse cx="244.642" cy="175.445" rx="4.15665" ry="1.93977" transform="matrix(.30437057 .9525537 -.9525537 .30437057 337.300959 -110.989938)"/><ellipse cx="244.037" cy="203.345" rx="4.15665" ry="1.93977" transform="matrix(-.51298703 .85839636 -.85839636 -.51298703 543.775423 98.177876)"/><ellipse cx="222.642" cy="226.406" rx="4.15665" ry="1.93977" transform="matrix(-.94477173 .32772912 -.32772912 -.94477173 507.187707 367.341723)"/><path d="m223.895 153.487-3.964 6.126 1.081 1.442 4.685-5.766z"/></g><circle cx="204.074" cy="170.785" fill="#c4c8c9" r="6.48694"/><circle cx="212.363" cy="185.561" fill="#c4c8c9" r="4.68501"/><circle cx="191.461" cy="181.237" fill="#c4c8c9" r="4.68501"/><circle cx="193.623" cy="197.093" fill="#c4c8c9" r="2.5227"/><circle cx="212.363" cy="211.509" fill="#c4c8c9" r="2.5227"/><path d="m244.077 174.029-6.126 2.162v1.802l6.847-1.081z" fill="#fff"/><path d="m244.725 201.985-5.675-3.164-1.351 1.192 5.341 4.42z" fill="#fff"/><path d="m224.043 225.807-2.313-6.072-1.801.045 1.249 6.818z" fill="#fff"/><path d="m179.622 214.693 3.19-3.544 2.162 1.081-3.964 3.964z" fill="#c4c8c9"/><path d="m170.775 188.878 4.754.369.461 2.373-5.559-.727z" fill="#c4c8c9"/><ellipse cx="178.847" cy="216.194" fill="#c4c8c9" rx="2.16231" ry="3.60385" transform="matrix(.81293004 -.58236136 .58236136 .81293004 -92.44613 144.596985)"/><ellipse cx="169.113" cy="189.179" fill="#c4c8c9" rx="2.16231" ry="3.60385" transform="matrix(.95718167 .2894879 -.2894879 .95718167 62.006168 -40.855839)"/></g></svg>