<svg width="518" height="242" viewBox="0 0 518 242" fill="none" xmlns="http://www.w3.org/2000/svg">
<g clip-path="url(#clip0)">
<path opacity="0.5" fill-rule="evenodd" clip-rule="evenodd" d="M-139.519 13.5036C-76.2471 7.47425 -4.13044 -17.5006 46.3326 21.1401C96.7554 59.7502 94.0895 135.45 102.025 198.46C108.559 250.335 99.6382 299.88 87.8555 350.82C74.8 407.264 66.9866 465.635 29.9274 510.164C-14.6952 563.782 -70.8025 636.033 -139.519 624.028C-210.86 611.564 -212.62 500.764 -270.793 457.626C-327.921 415.264 -443.044 450.343 -464.974 382.689C-486.911 315.016 -383.444 271.667 -351.712 207.996C-327.055 158.519 -342.053 91.6201 -301.301 54.2676C-259.275 15.7478 -196.27 18.9117 -139.519 13.5036Z" fill="#C8D419"/>
</g>
<g clip-path="url(#clip1)">
<path opacity="0.5" fill-rule="evenodd" clip-rule="evenodd" d="M202.252 176.871C271.552 167.091 321.047 241.986 376.017 285.303C428.442 326.615 498.739 358.151 514.577 422.991C530.228 487.064 477.404 544.581 454.455 606.417C432.768 664.851 432.706 735.74 384.048 774.693C334.732 814.173 263.829 822.423 202.252 808.317C146.609 795.57 117.353 738.385 72.3339 703.288C29.5295 669.917 -36.3211 659.028 -54.7303 607.97C-73.1981 556.749 -38.8179 503.213 -17.9337 452.929C1.22245 406.805 29.6635 368.832 60.8057 329.788C105.188 274.143 131.774 186.817 202.252 176.871Z" fill="#1FBBEC"/>
</g>
<defs>
<clipPath id="clip0">
<rect width="105" height="242" fill="white"/>
</clipPath>
<clipPath id="clip1">
<rect width="518" height="66" fill="white" transform="translate(0 176)"/>
</clipPath>
</defs>
</svg>
