<svg width="198" height="152" viewBox="0 0 198 152" fill="none" xmlns="http://www.w3.org/2000/svg">
<g opacity="0.2">
<circle cx="41.6783" cy="112.246" r="34.597" fill="white"/>
<path fill-rule="evenodd" clip-rule="evenodd" d="M71.5182 129.765C65.4515 135.017 57.5398 138.194 48.886 138.194C29.7786 138.194 14.289 122.704 14.289 103.597C14.289 97.2042 16.0229 91.2164 19.0461 86.0781C11.7176 92.4219 7.0813 101.793 7.0813 112.246C7.0813 131.354 22.5709 146.843 41.6783 146.843C54.3929 146.843 65.5055 139.985 71.5182 129.765Z" fill="#C4C8C9"/>
<path d="M28.7044 86.2984L24.0194 72.2434H26.9025L32.3083 83.7757L28.7044 86.2984Z" fill="white"/>
<ellipse cx="26.1817" cy="71.5227" rx="5.40578" ry="2.5227" fill="white"/>
<ellipse cx="58.6305" cy="76.1052" rx="4.15665" ry="1.93977" transform="rotate(34.1506 58.6305 76.1052)" fill="white"/>
<ellipse cx="78.6419" cy="97.4449" rx="4.15665" ry="1.93977" transform="rotate(72.2797 78.6419 97.4449)" fill="white"/>
<ellipse cx="78.0364" cy="125.345" rx="4.15665" ry="1.93977" transform="rotate(120.863 78.0364 125.345)" fill="white"/>
<ellipse cx="56.6417" cy="148.406" rx="4.15665" ry="1.93977" transform="rotate(160.869 56.6417 148.406)" fill="white"/>
<path d="M57.8956 75.4868L53.9314 81.6134L55.0126 83.0549L59.6976 77.2887L57.8956 75.4868Z" fill="white"/>
<ellipse cx="38.0744" cy="92.7855" rx="6.48688" ry="6.48694" fill="#C4C8C9"/>
<circle cx="46.3632" cy="107.561" r="4.68501" fill="#C4C8C9"/>
<circle cx="25.4609" cy="103.237" r="4.68501" fill="#C4C8C9"/>
<ellipse cx="27.6232" cy="119.093" rx="2.52264" ry="2.52269" fill="#C4C8C9"/>
<circle cx="46.3633" cy="133.509" r="2.5227" fill="#C4C8C9"/>
<path d="M78.0772 96.0288L71.9507 98.1911V99.993L78.798 98.9119L78.0772 96.0288Z" fill="white"/>
<path d="M78.7247 123.985L73.0502 120.821L71.6989 122.013L77.0394 126.433L78.7247 123.985Z" fill="white"/>
<path d="M58.0429 147.807L55.7304 141.735L53.9291 141.78L55.1784 148.598L58.0429 147.807Z" fill="white"/>
<path d="M13.622 136.693L16.8117 133.149L18.974 134.23L15.0098 138.194L13.622 136.693Z" fill="#C4C8C9"/>
<path d="M4.77526 110.878L9.52913 111.247L9.99004 113.62L4.43101 112.893L4.77526 110.878Z" fill="#C4C8C9"/>
<ellipse cx="12.8474" cy="138.194" rx="2.16231" ry="3.60385" transform="rotate(-35.6168 12.8474 138.194)" fill="#C4C8C9"/>
<ellipse cx="3.113" cy="111.179" rx="2.16231" ry="3.60385" transform="rotate(16.8273 3.113 111.179)" fill="#C4C8C9"/>
</g>
<g opacity="0.2">
<circle cx="174.937" cy="24.838" r="19.8703" fill="white"/>
<path fill-rule="evenodd" clip-rule="evenodd" d="M192.074 34.8997C188.59 37.9157 184.046 39.7404 179.076 39.7404C168.102 39.7404 159.206 30.8442 159.206 19.8702C159.206 16.1985 160.202 12.7595 161.938 9.80835C157.729 13.4518 155.066 18.8339 155.066 24.8378C155.066 35.8119 163.962 44.7081 174.936 44.7081C182.239 44.7081 188.621 40.769 192.074 34.8997Z" fill="#C4C8C9"/>
<path d="M167.486 9.93533L164.795 1.86304H166.451L169.556 8.48646L167.486 9.93533Z" fill="white"/>
<ellipse cx="166.037" cy="1.44887" rx="3.10473" ry="1.44887" fill="white"/>
<ellipse cx="184.673" cy="4.08074" rx="2.38731" ry="1.11408" transform="rotate(34.1506 184.673 4.08074)" fill="white"/>
<ellipse cx="196.167" cy="16.3368" rx="2.38731" ry="1.11408" transform="rotate(72.2797 196.167 16.3368)" fill="white"/>
<ellipse cx="195.819" cy="32.3611" rx="2.38731" ry="1.11408" transform="rotate(120.863 195.819 32.3611)" fill="white"/>
<ellipse cx="183.531" cy="45.6058" rx="2.38731" ry="1.11408" transform="rotate(160.869 183.531 45.6058)" fill="white"/>
<path d="M184.251 3.72559L181.975 7.24428L182.596 8.07221L185.286 4.7605L184.251 3.72559Z" fill="white"/>
<circle cx="172.868" cy="13.6607" r="3.72567" fill="#C4C8C9"/>
<circle cx="177.628" cy="22.1468" r="2.69077" fill="#C4C8C9"/>
<circle cx="165.623" cy="19.6634" r="2.69077" fill="#C4C8C9"/>
<circle cx="166.865" cy="28.7704" r="1.44887" fill="#C4C8C9"/>
<circle cx="177.628" cy="37.0497" r="1.44887" fill="#C4C8C9"/>
<path d="M195.842 15.5237L192.323 16.7656V17.8005L196.256 17.1795L195.842 15.5237Z" fill="white"/>
<path d="M196.214 31.5799L192.955 29.7627L192.179 30.4473L195.246 32.9857L196.214 31.5799Z" fill="white"/>
<path d="M184.336 45.2615L183.008 41.7745L181.973 41.7999L182.69 45.7161L184.336 45.2615Z" fill="white"/>
<path d="M158.823 38.8783L160.655 36.8428L161.897 37.4637L159.621 39.7405L158.823 38.8783Z" fill="#C4C8C9"/>
<path d="M153.742 24.0521L156.473 24.2636L156.737 25.6267L153.544 25.2095L153.742 24.0521Z" fill="#C4C8C9"/>
<ellipse cx="158.379" cy="39.7404" rx="1.24189" ry="2.06982" transform="rotate(-35.6168 158.379 39.7404)" fill="#C4C8C9"/>
<ellipse cx="152.788" cy="24.225" rx="1.24189" ry="2.06982" transform="rotate(16.8273 152.788 24.225)" fill="#C4C8C9"/>
</g>
</svg>
