<svg width="1366" height="970" viewBox="0 0 1366 970" fill="none" xmlns="http://www.w3.org/2000/svg">
<g opacity="0.2">
<circle cx="194.061" cy="404.465" r="97.1718" fill="white"/>
<path fill-rule="evenodd" clip-rule="evenodd" d="M277.872 453.669C260.832 468.42 238.611 477.343 214.305 477.343C160.638 477.343 117.133 433.838 117.133 380.172C117.133 362.216 122.003 345.399 130.494 330.967C109.911 348.785 96.889 375.104 96.889 404.465C96.889 458.131 140.394 501.637 194.061 501.637C229.772 501.637 260.984 482.373 277.872 453.669Z" fill="#ABBABF"/>
<path d="M157.621 331.586L144.463 292.11H152.56L167.743 324.5L157.621 331.586Z" fill="white"/>
<ellipse cx="150.536" cy="290.085" rx="15.1831" ry="7.08544" fill="white"/>
<ellipse cx="241.674" cy="302.956" rx="11.6747" ry="5.44819" transform="rotate(34.1506 241.674 302.956)" fill="white"/>
<ellipse cx="297.88" cy="362.892" rx="11.6747" ry="5.44819" transform="rotate(72.2797 297.88 362.892)" fill="white"/>
<ellipse cx="296.179" cy="441.256" rx="11.6747" ry="5.44819" transform="rotate(120.863 296.179 441.256)" fill="white"/>
<ellipse cx="236.088" cy="506.027" rx="11.6747" ry="5.44819" transform="rotate(160.869 236.088 506.027)" fill="white"/>
<path d="M239.61 301.22L228.476 318.427L231.512 322.476L244.671 306.281L239.61 301.22Z" fill="white"/>
<circle cx="183.939" cy="349.806" r="18.2197" fill="#ABBABF"/>
<circle cx="207.219" cy="391.306" r="13.1587" fill="#ABBABF"/>
<circle cx="148.512" cy="379.16" r="13.1587" fill="#ABBABF"/>
<circle cx="154.585" cy="423.697" r="7.08544" fill="#ABBABF"/>
<circle cx="207.219" cy="464.185" r="7.08544" fill="#ABBABF"/>
<path d="M296.294 358.916L279.086 364.989V370.05L298.318 367.013L296.294 358.916Z" fill="white"/>
<path d="M298.112 437.436L282.175 428.549L278.379 431.897L293.379 444.311L298.112 437.436Z" fill="white"/>
<path d="M240.024 504.343L233.529 487.29L228.469 487.415L231.978 506.566L240.024 504.343Z" fill="white"/>
<path d="M115.26 473.127L124.219 463.173L130.292 466.209L119.158 477.343L115.26 473.127Z" fill="#ABBABF"/>
<path d="M90.4123 400.622L103.764 401.657L105.059 408.323L89.4454 406.283L90.4123 400.622Z" fill="#ABBABF"/>
<ellipse cx="113.084" cy="477.344" rx="6.07324" ry="10.1221" transform="rotate(-35.6168 113.084 477.344)" fill="#ABBABF"/>
<ellipse cx="85.7434" cy="401.468" rx="6.07324" ry="10.1221" transform="rotate(16.8273 85.7434 401.468)" fill="#ABBABF"/>
</g>
<g opacity="0.5">
<circle cx="796.406" cy="353.292" r="67.4339" fill="white"/>
<path fill-rule="evenodd" clip-rule="evenodd" d="M854.568 387.439C842.743 397.675 827.322 403.868 810.455 403.868C773.212 403.868 743.021 373.676 743.021 336.434C743.021 323.973 746.401 312.302 752.293 302.287C738.009 314.652 728.972 332.917 728.972 353.292C728.972 390.535 759.164 420.726 796.406 420.726C821.189 420.726 842.849 407.358 854.568 387.439Z" fill="#ABBABF"/>
<path d="M771.119 302.717L761.987 275.322H767.606L778.143 297.8L771.119 302.717Z" fill="white"/>
<ellipse cx="766.202" cy="273.917" rx="10.5365" ry="4.91706" fill="white"/>
<ellipse cx="829.448" cy="282.849" rx="8.10184" ry="3.78086" transform="rotate(34.1506 829.448 282.849)" fill="white"/>
<ellipse cx="868.453" cy="324.443" rx="8.10184" ry="3.78086" transform="rotate(72.2797 868.453 324.443)" fill="white"/>
<ellipse cx="867.273" cy="378.824" rx="8.10184" ry="3.78086" transform="rotate(120.863 867.273 378.824)" fill="white"/>
<ellipse cx="825.572" cy="423.773" rx="8.10184" ry="3.78086" transform="rotate(160.869 825.572 423.773)" fill="white"/>
<path d="M828.016 281.644L820.289 293.585L822.397 296.395L831.528 285.156L828.016 281.644Z" fill="white"/>
<circle cx="789.382" cy="315.361" r="12.6439" fill="#ABBABF"/>
<circle cx="805.538" cy="344.161" r="9.13168" fill="#ABBABF"/>
<circle cx="764.797" cy="335.732" r="9.13168" fill="#ABBABF"/>
<circle cx="769.011" cy="366.639" r="4.91706" fill="#ABBABF"/>
<circle cx="805.538" cy="394.736" r="4.91706" fill="#ABBABF"/>
<path d="M867.352 321.683L855.411 325.897V329.41L868.757 327.302L867.352 321.683Z" fill="white"/>
<path d="M868.615 376.173L857.554 370.006L854.921 372.33L865.33 380.944L868.615 376.173Z" fill="white"/>
<path d="M828.303 422.605L823.796 410.77L820.285 410.857L822.72 424.147L828.303 422.605Z" fill="white"/>
<path d="M741.721 400.942L747.938 394.034L752.153 396.141L744.426 403.868L741.721 400.942Z" fill="#ABBABF"/>
<path d="M724.478 350.626L733.744 351.344L734.642 355.97L723.807 354.554L724.478 350.626Z" fill="#ABBABF"/>
<ellipse cx="740.211" cy="403.868" rx="4.21462" ry="7.02437" transform="rotate(-35.6168 740.211 403.868)" fill="#ABBABF"/>
<ellipse cx="721.238" cy="351.213" rx="4.21462" ry="7.02437" transform="rotate(16.8273 721.238 351.213)" fill="#ABBABF"/>
</g>
<g opacity="0.5">
<circle cx="73.8246" cy="80" r="48" fill="white"/>
<path fill-rule="evenodd" clip-rule="evenodd" d="M115.225 104.306C106.808 111.592 95.8309 116 83.8246 116C57.3149 116 35.8246 94.5097 35.8246 68C35.8246 59.1306 38.2302 50.823 42.4245 43.6942C32.257 52.4956 25.8246 65.4966 25.8246 80C25.8246 106.51 47.3149 128 73.8246 128C91.4648 128 106.883 118.484 115.225 104.306Z" fill="#ABBABF"/>
<path d="M55.8246 44L49.3246 24.5H53.3246L60.8246 40.5L55.8246 44Z" fill="white"/>
<ellipse cx="52.3246" cy="23.5" rx="7.5" ry="3.5" fill="white"/>
<ellipse cx="97.3441" cy="29.8579" rx="5.76695" ry="2.69125" transform="rotate(34.1506 97.3441 29.8579)" fill="white"/>
<ellipse cx="125.108" cy="59.4646" rx="5.76695" ry="2.69125" transform="rotate(72.2797 125.108 59.4646)" fill="white"/>
<ellipse cx="124.268" cy="98.174" rx="5.76695" ry="2.69125" transform="rotate(120.863 124.268 98.174)" fill="white"/>
<ellipse cx="94.585" cy="130.169" rx="5.76696" ry="2.69125" transform="rotate(160.869 94.585 130.169)" fill="white"/>
<path d="M96.3246 29L90.8246 37.5L92.3246 39.5L98.8246 31.5L96.3246 29Z" fill="white"/>
<circle cx="68.8246" cy="53" r="9" fill="#ABBABF"/>
<circle cx="80.3246" cy="73.5" r="6.5" fill="#ABBABF"/>
<circle cx="51.3246" cy="67.5" r="6.5" fill="#ABBABF"/>
<circle cx="54.3246" cy="89.5" r="3.5" fill="#ABBABF"/>
<circle cx="80.3246" cy="109.5" r="3.5" fill="#ABBABF"/>
<path d="M124.325 57.5L115.825 60.5V63L125.325 61.5L124.325 57.5Z" fill="white"/>
<path d="M125.223 96.2868L117.35 91.8971L115.475 93.5509L122.885 99.6828L125.223 96.2868Z" fill="white"/>
<path d="M96.5289 129.337L93.3206 120.913L90.8214 120.975L92.5548 130.435L96.5289 129.337Z" fill="white"/>
<path d="M34.8992 113.917L39.3246 109L42.3246 110.5L36.8246 116L34.8992 113.917Z" fill="#ABBABF"/>
<path d="M22.6253 78.1019L29.2208 78.6131L29.8603 81.9056L22.1477 80.8979L22.6253 78.1019Z" fill="#ABBABF"/>
<ellipse cx="33.8246" cy="116" rx="3" ry="5" transform="rotate(-35.6168 33.8246 116)" fill="#ABBABF"/>
<ellipse cx="20.319" cy="78.5196" rx="3" ry="5" transform="rotate(16.8273 20.319 78.5196)" fill="#ABBABF"/>
</g>
<g opacity="0.8">
<circle cx="938.397" cy="182.691" r="28.5525" fill="white"/>
<path fill-rule="evenodd" clip-rule="evenodd" d="M963.023 197.149C958.016 201.483 951.487 204.105 944.345 204.105C928.576 204.105 915.793 191.322 915.793 175.553C915.793 170.277 917.223 165.335 919.718 161.094C913.67 166.33 909.844 174.063 909.844 182.691C909.844 198.46 922.627 211.243 938.397 211.243C948.89 211.243 958.061 205.583 963.023 197.149Z" fill="#ABBABF"/>
<path d="M927.689 161.276L923.823 149.677H926.202L930.664 159.194L927.689 161.276Z" fill="white"/>
<ellipse cx="925.607" cy="149.082" rx="4.46133" ry="2.08195" fill="white"/>
<ellipse cx="952.387" cy="152.864" rx="3.43044" ry="1.60087" transform="rotate(34.1506 952.387 152.864)" fill="white"/>
<ellipse cx="968.902" cy="170.475" rx="3.43044" ry="1.60087" transform="rotate(72.2797 968.902 170.475)" fill="white"/>
<ellipse cx="968.403" cy="193.501" rx="3.43044" ry="1.60087" transform="rotate(120.863 968.403 193.501)" fill="white"/>
<ellipse cx="950.746" cy="212.533" rx="3.43044" ry="1.60087" transform="rotate(160.869 950.746 212.533)" fill="white"/>
<path d="M951.781 152.354L948.509 157.41L949.401 158.599L953.268 153.841L951.781 152.354Z" fill="white"/>
<circle cx="935.422" cy="166.63" r="5.35359" fill="#ABBABF"/>
<circle cx="942.263" cy="178.824" r="3.86649" fill="#ABBABF"/>
<circle cx="925.013" cy="175.255" r="3.86649" fill="#ABBABF"/>
<circle cx="926.797" cy="188.342" r="2.08195" fill="#ABBABF"/>
<circle cx="942.263" cy="200.239" r="2.08195" fill="#ABBABF"/>
<path d="M968.436 169.307L963.38 171.091V172.578L969.031 171.686L968.436 169.307Z" fill="white"/>
<path d="M968.971 192.379L964.288 189.768L963.172 190.751L967.58 194.399L968.971 192.379Z" fill="white"/>
<path d="M951.902 212.038L949.994 207.028L948.507 207.064L949.538 212.692L951.902 212.038Z" fill="white"/>
<path d="M915.242 202.866L917.874 199.941L919.659 200.833L916.387 204.105L915.242 202.866Z" fill="#ABBABF"/>
<path d="M907.941 181.562L911.864 181.866L912.245 183.824L907.657 183.225L907.941 181.562Z" fill="#ABBABF"/>
<ellipse cx="914.603" cy="204.105" rx="1.78453" ry="2.97422" transform="rotate(-35.6168 914.603 204.105)" fill="#ABBABF"/>
<ellipse cx="906.569" cy="181.81" rx="1.78453" ry="2.97422" transform="rotate(16.8273 906.569 181.81)" fill="#ABBABF"/>
</g>
<g opacity="0.8">
<circle cx="790.391" cy="869.195" r="17.7564" fill="white"/>
<path fill-rule="evenodd" clip-rule="evenodd" d="M805.706 878.187C802.592 880.882 798.531 882.513 794.09 882.513C784.283 882.513 776.334 874.563 776.334 864.756C776.334 861.475 777.223 858.402 778.775 855.765C775.014 859.021 772.634 863.83 772.634 869.196C772.634 879.002 780.584 886.952 790.391 886.952C796.916 886.952 802.62 883.432 805.706 878.187Z" fill="#ABBABF"/>
<path d="M783.732 855.878L781.328 848.665H782.807L785.582 854.583L783.732 855.878Z" fill="white"/>
<ellipse cx="782.437" cy="848.295" rx="2.77444" ry="1.29474" fill="white"/>
<ellipse cx="799.091" cy="850.647" rx="2.13334" ry="0.995559" transform="rotate(34.1506 799.091 850.647)" fill="white"/>
<ellipse cx="809.362" cy="861.599" rx="2.13334" ry="0.995559" transform="rotate(72.2797 809.362 861.599)" fill="white"/>
<ellipse cx="809.051" cy="875.919" rx="2.13334" ry="0.995559" transform="rotate(120.863 809.051 875.919)" fill="white"/>
<ellipse cx="798.071" cy="887.754" rx="2.13334" ry="0.995559" transform="rotate(160.869 798.071 887.754)" fill="white"/>
<path d="M798.714 850.329L796.679 853.474L797.234 854.214L799.639 851.254L798.714 850.329Z" fill="white"/>
<circle cx="788.541" cy="859.208" r="3.32933" fill="#ABBABF"/>
<circle cx="792.795" cy="866.791" r="2.40451" fill="#ABBABF"/>
<circle cx="782.067" cy="864.571" r="2.40451" fill="#ABBABF"/>
<circle cx="783.177" cy="872.71" r="1.29474" fill="#ABBABF"/>
<circle cx="792.795" cy="880.108" r="1.29474" fill="#ABBABF"/>
<path d="M809.072 860.872L805.928 861.982V862.907L809.442 862.352L809.072 860.872Z" fill="white"/>
<path d="M809.404 875.22L806.492 873.597L805.798 874.208L808.539 876.477L809.404 875.22Z" fill="white"/>
<path d="M798.79 887.447L797.603 884.33L796.678 884.353L797.32 887.853L798.79 887.447Z" fill="white"/>
<path d="M775.991 881.742L777.628 879.923L778.738 880.478L776.704 882.513L775.991 881.742Z" fill="#ABBABF"/>
<path d="M771.451 868.493L773.891 868.682L774.127 869.9L771.274 869.528L771.451 868.493Z" fill="#ABBABF"/>
<ellipse cx="775.594" cy="882.513" rx="1.10978" ry="1.84963" transform="rotate(-35.6168 775.594 882.513)" fill="#ABBABF"/>
<ellipse cx="770.598" cy="868.648" rx="1.10978" ry="1.84963" transform="rotate(16.8273 770.598 868.648)" fill="#ABBABF"/>
</g>
<g opacity="0.8">
<circle cx="609.676" cy="51.5446" r="41.2357" fill="white"/>
<path fill-rule="evenodd" clip-rule="evenodd" d="M645.242 72.4248C638.011 78.6842 628.581 82.4711 618.266 82.4711C595.493 82.4711 577.031 64.0093 577.031 41.2355C577.031 33.616 579.097 26.4793 582.701 20.3551C573.966 27.9162 568.44 39.085 568.44 51.5445C568.44 74.3183 586.902 92.7801 609.676 92.7801C624.83 92.7801 638.075 84.6053 645.242 72.4248Z" fill="#ABBABF"/>
<path d="M594.212 20.6177L588.628 3.86572H592.065L598.508 17.6109L594.212 20.6177Z" fill="white"/>
<ellipse cx="591.206" cy="3.00677" rx="6.44307" ry="3.00677" fill="white"/>
<ellipse cx="629.881" cy="8.46866" rx="4.95425" ry="2.31199" transform="rotate(34.1506 629.881 8.46866)" fill="white"/>
<ellipse cx="653.732" cy="33.9031" rx="4.95425" ry="2.31199" transform="rotate(72.2797 653.732 33.9031)" fill="white"/>
<ellipse cx="653.01" cy="67.1575" rx="4.95425" ry="2.31199" transform="rotate(120.863 653.01 67.1575)" fill="white"/>
<ellipse cx="627.51" cy="94.6431" rx="4.95425" ry="2.31199" transform="rotate(160.869 627.51 94.6431)" fill="white"/>
<path d="M629.005 7.73169L624.28 15.0338L625.569 16.752L631.153 9.87938L629.005 7.73169Z" fill="white"/>
<circle cx="605.38" cy="28.3495" r="7.73168" fill="#ABBABF"/>
<circle cx="615.26" cy="45.9606" r="5.58399" fill="#ABBABF"/>
<circle cx="590.346" cy="40.806" r="5.58399" fill="#ABBABF"/>
<circle cx="592.924" cy="59.7057" r="3.00677" fill="#ABBABF"/>
<circle cx="615.26" cy="76.8874" r="3.00677" fill="#ABBABF"/>
<path d="M653.059 32.2153L645.757 34.7926V36.9403L653.918 35.6516L653.059 32.2153Z" fill="white"/>
<path d="M653.831 65.5362L647.068 61.7651L645.457 63.1859L651.822 68.4536L653.831 65.5362Z" fill="white"/>
<path d="M629.18 93.9287L626.424 86.6922L624.277 86.7451L625.766 94.8721L629.18 93.9287Z" fill="white"/>
<path d="M576.236 80.6821L580.038 76.4579L582.615 77.7465L577.89 82.4714L576.236 80.6821Z" fill="#ABBABF"/>
<path d="M565.692 49.9139L571.358 50.353L571.907 53.1816L565.281 52.3159L565.692 49.9139Z" fill="#ABBABF"/>
<ellipse cx="575.313" cy="82.4713" rx="2.57723" ry="4.29538" transform="rotate(-35.6168 575.313 82.4713)" fill="#ABBABF"/>
<ellipse cx="563.71" cy="50.2727" rx="2.57723" ry="4.29538" transform="rotate(16.8273 563.71 50.2727)" fill="#ABBABF"/>
</g>
<g opacity="0.5">
<circle cx="1248.99" cy="824.092" r="90.4731" fill="white"/>
<path fill-rule="evenodd" clip-rule="evenodd" d="M1327.02 869.906C1311.16 883.638 1290.47 891.946 1267.84 891.946C1217.87 891.946 1177.37 851.44 1177.37 801.473C1177.37 784.755 1181.9 769.096 1189.81 755.659C1170.64 772.248 1158.52 796.754 1158.52 824.091C1158.52 874.058 1199.02 914.565 1248.99 914.565C1282.24 914.565 1311.3 896.629 1327.02 869.906Z" fill="#ABBABF"/>
<path d="M1215.06 756.237L1202.81 719.482H1210.35L1224.49 749.64L1215.06 756.237Z" fill="white"/>
<ellipse cx="1208.47" cy="717.597" rx="14.1364" ry="6.597" fill="white"/>
<ellipse cx="1293.32" cy="729.581" rx="10.8699" ry="5.07261" transform="rotate(34.1506 1293.32 729.581)" fill="white"/>
<ellipse cx="1345.65" cy="785.385" rx="10.8699" ry="5.07261" transform="rotate(72.2797 1345.65 785.385)" fill="white"/>
<ellipse cx="1344.07" cy="858.347" rx="10.8699" ry="5.07261" transform="rotate(120.863 1344.07 858.347)" fill="white"/>
<ellipse cx="1288.12" cy="918.652" rx="10.8699" ry="5.07261" transform="rotate(160.869 1288.12 918.652)" fill="white"/>
<path d="M1291.4 727.964L1281.03 743.985L1283.86 747.755L1296.11 732.676L1291.4 727.964Z" fill="white"/>
<circle cx="1239.57" cy="773.2" r="16.9637" fill="#ABBABF"/>
<circle cx="1261.24" cy="811.84" r="12.2516" fill="#ABBABF"/>
<circle cx="1206.58" cy="800.531" r="12.2516" fill="#ABBABF"/>
<circle cx="1212.24" cy="841.997" r="6.597" fill="#ABBABF"/>
<circle cx="1261.24" cy="879.695" r="6.597" fill="#ABBABF"/>
<path d="M1344.17 781.682L1328.15 787.336V792.049L1346.06 789.221L1344.17 781.682Z" fill="white"/>
<path d="M1345.87 854.79L1331.03 846.516L1327.5 849.633L1341.46 861.191L1345.87 854.79Z" fill="white"/>
<path d="M1291.78 917.085L1285.74 901.207L1281.03 901.323L1284.29 919.154L1291.78 917.085Z" fill="white"/>
<path d="M1175.62 888.02L1183.96 878.752L1189.62 881.579L1179.25 891.946L1175.62 888.02Z" fill="#ABBABF"/>
<path d="M1152.49 820.514L1164.92 821.477L1166.12 827.683L1151.59 825.784L1152.49 820.514Z" fill="#ABBABF"/>
<ellipse cx="1173.6" cy="891.946" rx="5.65457" ry="9.42428" transform="rotate(-35.6168 1173.6 891.946)" fill="#ABBABF"/>
<ellipse cx="1148.14" cy="821.301" rx="5.65457" ry="9.42428" transform="rotate(16.8273 1148.14 821.301)" fill="#ABBABF"/>
</g>
<g opacity="0.3">
<circle cx="614.101" cy="1024.08" r="99.266" fill="white"/>
<path fill-rule="evenodd" clip-rule="evenodd" d="M699.719 1074.35C682.312 1089.42 659.611 1098.53 634.782 1098.53C579.959 1098.53 535.516 1054.09 535.516 999.266C535.516 980.924 540.491 963.743 549.165 949.001C528.138 967.202 514.835 994.089 514.835 1024.08C514.835 1078.91 559.278 1123.35 614.101 1123.35C650.582 1123.35 682.467 1103.67 699.719 1074.35Z" fill="#ABBABF"/>
<path d="M576.877 949.633L563.434 909.306H571.707L587.217 942.395L576.877 949.633Z" fill="white"/>
<ellipse cx="569.639" cy="907.238" rx="15.5103" ry="7.23815" fill="white"/>
<ellipse cx="662.741" cy="920.386" rx="11.9263" ry="5.56561" transform="rotate(34.1506 662.741 920.386)" fill="white"/>
<ellipse cx="720.158" cy="981.614" rx="11.9263" ry="5.56561" transform="rotate(72.2797 720.158 981.614)" fill="white"/>
<path d="M660.632 918.612L649.258 936.191L652.36 940.327L665.802 923.783L660.632 918.612Z" fill="white"/>
<circle cx="603.761" cy="968.245" r="18.6124" fill="#ABBABF"/>
</g>
<g opacity="0.5">
<circle cx="34.9617" cy="943.707" r="60.5653" fill="white"/>
<path fill-rule="evenodd" clip-rule="evenodd" d="M87.1994 974.375C76.579 983.569 62.7287 989.131 47.5794 989.131C14.1301 989.131 -12.9859 962.015 -12.9859 928.565C-12.9859 917.374 -9.95063 906.892 -4.65837 897.897C-17.4875 909.002 -25.6037 925.407 -25.6037 943.707C-25.6037 977.156 1.51232 1004.27 34.9616 1004.27C57.2198 1004.27 76.6736 992.265 87.1994 974.375Z" fill="#ABBABF"/>
<path d="M12.2497 898.283L4.04816 873.678H9.09527L18.5586 893.866L12.2497 898.283Z" fill="white"/>
<ellipse cx="7.83351" cy="872.416" rx="9.46333" ry="4.41622" fill="white"/>
<ellipse cx="64.6382" cy="880.438" rx="7.27661" ry="3.39575" transform="rotate(34.1506 64.6382 880.438)" fill="white"/>
<ellipse cx="99.6702" cy="917.795" rx="7.27661" ry="3.39575" transform="rotate(72.2797 99.6702 917.795)" fill="white"/>
<ellipse cx="98.6101" cy="966.638" rx="7.27661" ry="3.39575" transform="rotate(120.863 98.6101 966.638)" fill="white"/>
<path d="M63.3517 879.356L56.4119 890.081L58.3046 892.605L66.5061 882.51L63.3517 879.356Z" fill="white"/>
<circle cx="28.6529" cy="909.639" r="11.356" fill="#ABBABF"/>
<circle cx="43.1633" cy="935.505" r="8.20155" fill="#ABBABF"/>
<circle cx="6.57173" cy="927.934" r="8.20155" fill="#ABBABF"/>
<circle cx="10.3571" cy="955.693" r="4.41622" fill="#ABBABF"/>
<path d="M98.6815 915.317L87.9564 919.102V922.256L99.9433 920.364L98.6815 915.317Z" fill="white"/>
<path d="M99.8151 964.257L89.8814 958.718L87.5158 960.805L96.8649 968.542L99.8151 964.257Z" fill="white"/>
</g>
<g opacity="0.2">
<circle cx="1314.55" cy="273.789" r="159.831" fill="white"/>
<path fill-rule="evenodd" clip-rule="evenodd" d="M1452.4 354.723C1424.37 378.985 1387.82 393.663 1347.84 393.663C1259.57 393.663 1188.01 322.104 1188.01 233.831C1188.01 204.298 1196.02 176.635 1209.99 152.898C1176.13 182.205 1154.71 225.496 1154.71 273.789C1154.71 362.062 1226.27 433.621 1314.55 433.621C1373.28 433.621 1424.62 401.935 1452.4 354.723Z" fill="#ABBABF"/>
<path d="M1254.61 153.915L1232.96 88.9839H1246.28L1271.26 142.261L1254.61 153.915Z" fill="white"/>
<ellipse cx="1242.95" cy="85.6544" rx="24.9736" ry="11.6544" fill="white"/>
<ellipse cx="1383.67" cy="440.842" rx="19.2029" ry="8.96136" transform="rotate(160.869 1383.67 440.842)" fill="white"/>
<circle cx="1297.9" cy="183.884" r="29.9684" fill="#ABBABF"/>
<circle cx="1336.19" cy="252.145" r="21.6438" fill="#ABBABF"/>
<circle cx="1239.62" cy="232.167" r="21.6438" fill="#ABBABF"/>
<circle cx="1249.61" cy="305.422" r="11.6544" fill="#ABBABF"/>
<circle cx="1336.19" cy="372.019" r="11.6544" fill="#ABBABF"/>
<path d="M1184.93 386.727L1199.67 370.354L1209.66 375.348L1191.34 393.662L1184.93 386.727Z" fill="#ABBABF"/>
<path d="M1144.06 267.469L1166.02 269.171L1168.15 280.135L1142.47 276.779L1144.06 267.469Z" fill="#ABBABF"/>
<ellipse cx="1181.35" cy="393.663" rx="9.98946" ry="16.6491" transform="rotate(-35.6168 1181.35 393.663)" fill="#ABBABF"/>
<ellipse cx="1136.38" cy="268.86" rx="9.98946" ry="16.6491" transform="rotate(16.8273 1136.38 268.86)" fill="#ABBABF"/>
</g>
</svg>
