<svg width="320" height="323" viewBox="0 0 320 323" fill="none" xmlns="http://www.w3.org/2000/svg">
<circle cx="162.977" cy="169.109" r="135.287" fill="#419AB7"/>
<path fill-rule="evenodd" clip-rule="evenodd" d="M278.494 239.563C253.677 268.897 216.596 287.521 175.164 287.521C100.447 287.521 39.8766 226.951 39.8766 152.235C39.8766 126.424 47.1047 102.301 59.6471 81.7805C39.7106 105.346 27.6903 135.824 27.6903 169.109C27.6903 243.826 88.2604 304.396 162.977 304.396C211.883 304.396 254.728 278.445 278.494 239.563Z" fill="#293E45"/>
<path d="M112.245 67.6434L93.9246 12.6831H105.198L126.337 57.7787L112.245 67.6434Z" fill="#419AB7"/>
<ellipse cx="102.38" cy="9.86467" rx="21.1386" ry="9.86467" fill="#419AB7"/>
<ellipse cx="229.267" cy="27.7841" rx="16.254" ry="7.58522" transform="rotate(34.1506 229.267 27.7841)" fill="#419AB7"/>
<ellipse cx="307.519" cy="111.23" rx="16.254" ry="7.58522" transform="rotate(72.2797 307.519 111.23)" fill="#419AB7"/>
<ellipse cx="305.151" cy="220.331" rx="16.254" ry="7.58522" transform="rotate(120.863 305.151 220.331)" fill="#419AB7"/>
<ellipse cx="221.49" cy="310.508" rx="16.254" ry="7.58522" transform="rotate(160.869 221.49 310.508)" fill="#43575D"/>
<path d="M226.393 25.3663L210.891 49.3234L215.119 54.9603L233.439 32.4125L226.393 25.3663Z" fill="#419AB7"/>
<path d="M305.31 105.693L281.353 114.148V121.194L308.129 116.967L305.31 105.693Z" fill="#419AB7"/>
<path d="M307.843 215.013L285.653 202.64L280.369 207.302L301.253 224.584L307.843 215.013Z" fill="#419AB7"/>
<path d="M226.969 308.164L217.926 284.422L210.882 284.595L215.768 311.259L226.969 308.164Z" fill="#43575D"/>
<path d="M53.2669 264.703L65.7398 250.845L74.1953 255.072L58.6936 270.574L53.2669 264.703Z" fill="#293E45"/>
<path d="M18.6732 163.759L37.2626 165.2L39.0649 174.48L17.327 171.639L18.6732 163.759Z" fill="#293E45"/>
<ellipse cx="50.2382" cy="270.574" rx="8.45543" ry="14.0924" transform="rotate(-35.6168 50.2382 270.574)" fill="#293E45"/>
<ellipse cx="12.173" cy="164.936" rx="8.45543" ry="14.0924" transform="rotate(16.8273 12.173 164.936)" fill="#293E45"/>
<g opacity="0.2">
<circle cx="162.977" cy="169.109" r="135.287" fill="white"/>
<path fill-rule="evenodd" clip-rule="evenodd" d="M279.663 237.613C255.939 258.149 225.002 270.573 191.162 270.573C116.445 270.573 55.8751 210.003 55.8751 135.287C55.8751 110.288 62.6552 86.874 74.4767 66.7816C45.8198 91.5883 27.6903 128.231 27.6903 169.108C27.6903 243.825 88.2603 304.395 162.977 304.395C212.696 304.395 256.151 277.575 279.663 237.613Z" fill="#ABBABF"/>
<path d="M112.245 67.6433L93.9246 12.683H105.198L126.337 57.7786L112.245 67.6433Z" fill="white"/>
<ellipse cx="102.38" cy="9.86467" rx="21.1386" ry="9.86467" fill="white"/>
<ellipse cx="229.267" cy="27.784" rx="16.254" ry="7.58521" transform="rotate(34.1506 229.267 27.784)" fill="white"/>
<ellipse cx="307.519" cy="111.23" rx="16.254" ry="7.58521" transform="rotate(72.2797 307.519 111.23)" fill="white"/>
<ellipse cx="305.151" cy="220.331" rx="16.254" ry="7.58521" transform="rotate(120.863 305.151 220.331)" fill="white"/>
<ellipse cx="221.49" cy="310.508" rx="16.254" ry="7.58521" transform="rotate(160.869 221.49 310.508)" fill="#43575D"/>
<path d="M226.393 25.3663L210.891 49.3234L215.119 54.9603L233.439 32.4125L226.393 25.3663Z" fill="white"/>
<circle cx="148.885" cy="93.0096" r="25.3663" fill="#ABBABF"/>
<circle cx="181.297" cy="150.789" r="18.3201" fill="#ABBABF"/>
<circle cx="99.5615" cy="133.878" r="18.3201" fill="#ABBABF"/>
<circle cx="108.017" cy="195.884" r="9.86467" fill="#ABBABF"/>
<circle cx="181.297" cy="252.254" r="9.86467" fill="#ABBABF"/>
<path d="M305.31 105.693L281.353 114.148V121.195L308.129 116.967L305.31 105.693Z" fill="white"/>
<path d="M307.842 215.013L285.653 202.64L280.369 207.302L301.253 224.584L307.842 215.013Z" fill="white"/>
<path d="M226.969 308.164L217.926 284.422L210.882 284.595L215.768 311.259L226.969 308.164Z" fill="#43575D"/>
<path d="M53.2669 264.703L65.7398 250.844L74.1952 255.072L58.6936 270.574L53.2669 264.703Z" fill="#ABBABF"/>
<path d="M18.6731 163.759L37.2625 165.2L39.0649 174.48L17.327 171.639L18.6731 163.759Z" fill="#ABBABF"/>
<ellipse cx="50.2382" cy="270.574" rx="8.45543" ry="14.0924" transform="rotate(-35.6168 50.2382 270.574)" fill="#ABBABF"/>
<ellipse cx="12.173" cy="164.936" rx="8.45543" ry="14.0924" transform="rotate(16.8273 12.173 164.936)" fill="#ABBABF"/>
</g>
</svg>
