<svg width="7" height="11" viewBox="0 0 7 11" fill="none" xmlns="http://www.w3.org/2000/svg">
<path opacity="0.5" d="M0.517785 4.37423H6.48272C6.92801 4.37423 7.1646 3.84909 6.8686 3.51701L3.88639 0.173085C3.83802 0.118668 3.77861 0.075102 3.71209 0.0452651C3.64557 0.0154281 3.57346 0 3.50051 0C3.42756 0 3.35545 0.0154281 3.28893 0.0452651C3.22241 0.075102 3.163 0.118668 3.11462 0.173085L0.131384 3.51701C-0.164616 3.84909 0.0719775 4.37423 0.517785 4.37423ZM3.11411 10.8269C3.16248 10.8813 3.22189 10.9249 3.28841 10.9547C3.35493 10.9846 3.42705 11 3.49999 11C3.57294 11 3.64505 10.9846 3.71157 10.9547C3.77809 10.9249 3.8375 10.8813 3.88588 10.8269L6.86808 7.48299C7.1646 7.15143 6.92801 6.62629 6.4822 6.62629H0.517785C0.072494 6.62629 -0.164099 7.15143 0.1319 7.48351L3.11411 10.8269Z" fill="#293E45"/>
</svg>
