<svg width="16" height="16" fill="currentColor" viewBox="0 0 16 16" xmlns="http://www.w3.org/2000/svg">
<path d="M14.2222 3.55556H5.33333C4.35556 3.55556 3.55556 4.35556 3.55556 5.33333V14.2222C3.55556 15.2 4.35556 16 5.33333 16H14.2222C15.2 16 16 15.2 16 14.2222V5.33333C16 4.35556 15.2 3.55556 14.2222 3.55556ZM14.2222 5.33333V7.11111H5.33333V5.33333H14.2222ZM8.88889 10.6667V8.88889H10.6667V10.6667H8.88889ZM10.6667 12.4444V14.2222H8.88889V12.4444H10.6667ZM7.11111 10.6667H5.33333V8.88889H7.11111V10.6667ZM12.4444 8.88889H14.2222V10.6667H12.4444V8.88889ZM5.33333 12.4444H7.11111V14.2222H5.33333V12.4444ZM12.4444 14.2222V12.4444H14.2222V14.2222H12.4444ZM2.66667 12.4444H1.77778C0.8 12.4444 0 11.6444 0 10.6667V1.77778C0 0.8 0.8 0 1.77778 0H10.6667C11.6444 0 12.4444 0.8 12.4444 1.77778V2.66667H10.6667V1.77778H1.77778V10.6667H2.66667V12.4444Z"/>
</svg>
