<svg width="18" height="16" viewBox="0 0 18 16" fill="none" xmlns="http://www.w3.org/2000/svg">
<path d="M3.30712 12.64L0.915253 10.4V16H6.89491L4.50305 13.76L8.21044 10.304L6.99742 9.168L3.30712 12.64ZM15.6081 3.36L18 5.6V0H12.0203L14.4122 2.24L10.7048 5.696L11.9178 6.832L15.6081 3.36ZM14.4122 13.76L12.0203 16H18V10.4L15.6081 12.64L11.9178 9.168L10.7048 10.304L14.4037 13.768L14.4122 13.76ZM4.50305 2.24L6.89491 0H0.915253V5.6L3.30712 3.36L6.99742 6.832L8.21044 5.696L4.50305 2.24Z" fill="#1FBBEC"/>
</svg>
