<svg width="15" height="16" viewBox="0 0 15 16" fill="none" xmlns="http://www.w3.org/2000/svg">
<path d="M12.0482 11.3092C11.4378 11.3092 10.8916 11.5502 10.4739 11.9277L4.74699 8.59438C4.78715 8.40964 4.81928 8.2249 4.81928 8.03213C4.81928 7.83936 4.78715 7.65462 4.74699 7.46988L10.4096 4.16867C10.8434 4.57028 11.4137 4.81928 12.0482 4.81928C13.3815 4.81928 14.4578 3.74297 14.4578 2.40964C14.4578 1.07631 13.3815 0 12.0482 0C10.7149 0 9.63855 1.07631 9.63855 2.40964C9.63855 2.60241 9.67068 2.78715 9.71084 2.97189L4.04819 6.27309C3.61446 5.87149 3.04418 5.62249 2.40964 5.62249C1.07631 5.62249 0 6.69879 0 8.03213C0 9.36546 1.07631 10.4418 2.40964 10.4418C3.04418 10.4418 3.61446 10.1928 4.04819 9.79116L9.76707 13.1325C9.72691 13.3012 9.70281 13.4779 9.70281 13.6546C9.70281 14.9478 10.755 16 12.0482 16C13.3414 16 14.3936 14.9478 14.3936 13.6546C14.3936 12.3614 13.3414 11.3092 12.0482 11.3092ZM12.0482 1.60643C12.49 1.60643 12.8514 1.96787 12.8514 2.40964C12.8514 2.85141 12.49 3.21285 12.0482 3.21285C11.6064 3.21285 11.245 2.85141 11.245 2.40964C11.245 1.96787 11.6064 1.60643 12.0482 1.60643ZM2.40964 8.83534C1.96787 8.83534 1.60643 8.4739 1.60643 8.03213C1.60643 7.59036 1.96787 7.22892 2.40964 7.22892C2.85141 7.22892 3.21285 7.59036 3.21285 8.03213C3.21285 8.4739 2.85141 8.83534 2.40964 8.83534ZM12.0482 14.4739C11.6064 14.4739 11.245 14.1124 11.245 13.6707C11.245 13.2289 11.6064 12.8675 12.0482 12.8675C12.49 12.8675 12.8514 13.2289 12.8514 13.6707C12.8514 14.1124 12.49 14.4739 12.0482 14.4739Z" fill="#1FBBEC"/>
</svg>
