<svg width="20" height="20" viewBox="0 0 20 20" fill="none" xmlns="http://www.w3.org/2000/svg">
<path d="M18.4683 4.71335C17.8321 4.99476 17.1574 5.17958 16.4666 5.26168C17.1947 4.82621 17.7397 4.14086 17.9999 3.33335C17.3166 3.74001 16.5674 4.02501 15.7866 4.17918C15.2621 3.618 14.5669 3.24582 13.8091 3.1205C13.0512 2.99519 12.2732 3.12376 11.596 3.48623C10.9187 3.84869 10.3802 4.42475 10.0642 5.12484C9.74812 5.82493 9.67221 6.60983 9.84826 7.35751C8.46251 7.28806 7.10687 6.92795 5.86933 6.30057C4.63179 5.67319 3.54003 4.79255 2.66492 3.71585C2.35516 4.24789 2.19238 4.8527 2.19326 5.46835C2.19326 6.67668 2.80826 7.74418 3.74326 8.36918C3.18993 8.35176 2.64878 8.20233 2.16492 7.93335V7.97668C2.16509 8.78143 2.44356 9.56136 2.95313 10.1842C3.46269 10.8071 4.17199 11.2346 4.96076 11.3942C4.4471 11.5334 3.90851 11.5539 3.38576 11.4542C3.60814 12.1469 4.04159 12.7527 4.62542 13.1868C5.20924 13.6209 5.9142 13.8615 6.64159 13.875C5.91866 14.4428 5.0909 14.8625 4.20566 15.1102C3.32041 15.3578 2.39503 15.4286 1.48242 15.3183C3.0755 16.3429 4.93 16.8868 6.82409 16.885C13.2349 16.885 16.7408 11.5742 16.7408 6.96835C16.7408 6.81835 16.7366 6.66668 16.7299 6.51835C17.4123 6.02515 18.0013 5.4142 18.4691 4.71418L18.4683 4.71335Z" fill="#293E45"/>
</svg>
