<svg width="18" height="30" viewBox="0 0 18 30" fill="none" xmlns="http://www.w3.org/2000/svg">
<path d="M9 3C7.4087 3 5.88258 3.63214 4.75736 4.75736C3.63214 5.88258 3 7.4087 3 9V21C3 22.5913 3.63214 24.1174 4.75736 25.2426C5.88258 26.3679 7.4087 27 9 27C10.5913 27 12.1174 26.3679 13.2426 25.2426C14.3679 24.1174 15 22.5913 15 21V9C15 7.4087 14.3679 5.88258 13.2426 4.75736C12.1174 3.63214 10.5913 3 9 3ZM9 0C11.3869 0 13.6761 0.948211 15.364 2.63604C17.0518 4.32387 18 6.61305 18 9V21C18 23.3869 17.0518 25.6761 15.364 27.364C13.6761 29.0518 11.3869 30 9 30C6.61305 30 4.32387 29.0518 2.63604 27.364C0.948212 25.6761 0 23.3869 0 21V9C0 6.61305 0.948212 4.32387 2.63604 2.63604C4.32387 0.948211 6.61305 0 9 0ZM10.5 12C10.5 12.3978 10.342 12.7794 10.0607 13.0607C9.77936 13.342 9.39783 13.5 9 13.5C8.60217 13.5 8.22064 13.342 7.93934 13.0607C7.65804 12.7794 7.5 12.3978 7.5 12V7.5C7.5 7.10218 7.65804 6.72064 7.93934 6.43934C8.22064 6.15804 8.60217 6 9 6C9.39783 6 9.77936 6.15804 10.0607 6.43934C10.342 6.72064 10.5 7.10218 10.5 7.5V12Z" fill="white"/>
</svg>
